<?xml version="1.0" standalone="no"?>
<!DOCTYPE svg PUBLIC "-//W3C//DTD SVG 1.1//EN" "http://www.w3.org/Graphics/SVG/1.1/DTD/svg11.dtd" >
<svg xmlns="http://www.w3.org/2000/svg" xmlns:xlink="http://www.w3.org/1999/xlink" version="1.1">
<metadata></metadata>
<defs>
<font id="vollkornregular" horiz-adv-x="550" >
<font-face units-per-em="1000" ascent="800" descent="-200" />
<missing-glyph horiz-adv-x="200" />
<glyph horiz-adv-x="0" />
<glyph horiz-adv-x="333" />
<glyph unicode="&#xd;" horiz-adv-x="200" />
<glyph unicode=" "  horiz-adv-x="200" />
<glyph unicode="&#x09;" horiz-adv-x="200" />
<glyph unicode="&#xa0;" horiz-adv-x="200" />
<glyph unicode="!" horiz-adv-x="411" d="M145 681q14 3 33.5 8.5t38 12t29.5 12.5q11 -4 15.5 -11t2.5 -20q-6 -61 -13 -138t-12.5 -158t-8.5 -156q-9 -4 -20.5 -5t-24.5 -1q-5 96 -11 173t-13 145.5t-16 137.5zM150 45q0 23 17 40t44 17q26 0 40.5 -17.5t14.5 -34.5q0 -30 -18 -44t-41 -14q-27 0 -42 15t-15 38z " />
<glyph unicode="&#x22;" horiz-adv-x="343" d="M60 693q14 2 30 8t26 13q11 -2 16.5 -10.5t3.5 -22.5q-1 -3 -1 -6.5t-1 -7.5q-4 -40 -7.5 -86t-8.5 -102q-10 0 -22 2.5t-17 6.5q-2 52 -6.5 104t-12.5 101zM206 693q14 2 30.5 8t26.5 13q9 -2 14.5 -9t5.5 -18v-2.5v-3.5q-5 -43 -9 -91t-9 -112q-10 0 -23 2.5t-18 6.5 q-2 52 -6 104.5t-12 101.5z" />
<glyph unicode="#" horiz-adv-x="592" d="M30 212q0 11 3 24.5t9 26.5h478q0 -15 -2 -25t-10 -24h-97q-119 0 -195.5 -0.5t-120 -1t-65.5 -0.5zM83 441q0 11 2.5 24.5t9.5 26.5h467q0 -15 -2 -25.5t-10 -23.5h-66h-161.5t-129.5 -0.5t-110 -1.5zM103 18l148 696q14 -2 24.5 -6.5t18.5 -15.5l-148 -700 q-16 2 -26.5 8.5t-16.5 17.5zM310 14l149 700q15 -3 25.5 -7.5t17.5 -12.5l-148 -702q-19 3 -27.5 8.5t-16.5 13.5z" />
<glyph unicode="$" horiz-adv-x="552" d="M68 55q6 38 7.5 76t1.5 66q11 3 26 4.5t28 1.5q3 -51 18.5 -87.5t49 -56.5t86.5 -20q69 0 98.5 30.5t29.5 73.5q0 44 -24 72.5t-62 48.5t-80.5 39t-80.5 44t-62 62.5t-24 95.5q0 56 24.5 96.5t69.5 62t107 21.5q35 0 66.5 -6t57.5 -16t43 -22q0 -29 1 -67t5 -65 q-11 -4 -26.5 -6.5t-29.5 -2.5q-10 58 -26 88t-39 41.5t-53 11.5q-53 0 -83 -26t-30 -73q0 -44 24 -73t62 -50t80 -40.5t80 -44t62 -60.5t24 -91q0 -50 -24 -94t-74 -71t-130 -27q-62 0 -108.5 17.5t-94.5 46.5zM255 -80v403l44 -11v-133t0.5 -124.5t1.5 -145.5 q-11 0 -25 3.5t-21 7.5zM255 372v372q15 0 25.5 -2t20.5 -9q-1 -44 -1.5 -90t-0.5 -92.5v-94v-95.5z" />
<glyph unicode="%" horiz-adv-x="863" d="M90 512q0 43 18.5 80.5t55.5 61t92 23.5q49 0 81.5 -22.5t49 -57.5t16.5 -71q0 -45 -18 -83t-53 -61t-86 -23q-52 0 -86.5 22.5t-52 57.5t-17.5 73zM138 30l553 656q14 -3 23.5 -10.5t18.5 -18.5l-559 -664q-13 8 -23 17.5t-13 19.5zM167 525q0 -54 23.5 -89t63.5 -35 q25 0 49 28t24 83q0 54 -23.5 88.5t-60.5 34.5q-31 0 -53.5 -31.5t-22.5 -78.5zM460 145q0 43 18.5 80.5t55.5 61t92 23.5q49 0 81.5 -22.5t49 -57.5t16.5 -71q0 -45 -18 -83t-53 -61t-86 -23q-52 0 -86.5 22.5t-52 57.5t-17.5 73zM537 158q0 -54 23.5 -89t63.5 -35 q25 0 49 28t24 83q0 54 -23.5 88.5t-60.5 34.5q-31 0 -53.5 -31.5t-22.5 -78.5z" />
<glyph unicode="&#x26;" horiz-adv-x="742" d="M54 208q0 76 42.5 132t103.5 93l13 -33q-30 -29 -52.5 -68t-22.5 -95q0 -55 19.5 -93t52 -57.5t71.5 -19.5q45 0 81.5 17t74.5 57l30 -39q-45 -59 -92.5 -85.5t-106.5 -26.5q-60 0 -101 19.5t-66 51.5t-36 70.5t-11 76.5zM142 568q0 38 19 72t56 55.5t89 21.5 q43 0 74 -8.5t62 -26.5q-4 -26 -5 -56.5t0 -60.5q-12 -5 -26.5 -6.5t-26.5 -1.5q-4 64 -23.5 90t-60.5 26q-34 0 -56.5 -22.5t-22.5 -63.5q0 -29 7.5 -56t28 -59.5t58.5 -80.5q16 -19 36 -43.5t49 -58t71 -79t101 -108.5q17 -17 31.5 -26.5t34 -14t49.5 -6.5q0 -10 -1 -22 t-5 -23q-19 0 -47 -2.5t-55 -7t-44 -9.5q-67 89 -134.5 163t-135.5 153q-38 46 -66 87t-42.5 83.5t-14.5 90.5zM465 461q21 -1 49 -2t53 -1t54 1t46 2q0 -9 -1 -20.5t-3 -20.5q-20 -7 -33 -17.5t-21 -25.5t-15 -39q-8 -30 -19.5 -59t-27 -60.5t-37.5 -69.5l-32 36 q29 46 45 81t24 68q10 39 -6 57t-69 28q-3 10 -5 21t-2 21z" />
<glyph unicode="'" horiz-adv-x="198" d="M60 693q14 2 30.5 8t26.5 13q19 -3 21 -24v-4.5v-4.5q-6 -43 -9.5 -91t-8.5 -113q-10 0 -22.5 2.5t-17.5 7.5q-2 53 -7 105t-13 101z" />
<glyph unicode="(" horiz-adv-x="291" d="M35 240q0 87 18.5 166.5t58 161t103.5 173.5q13 2 20 -1.5t15 -10.5q-47 -70 -75.5 -144.5t-41.5 -159t-13 -185.5q0 -103 14 -190t44.5 -164t77.5 -152q-7 -5 -17 -5.5t-19 0.5q-58 78 -99.5 158.5t-63.5 168t-22 184.5z" />
<glyph unicode=")" horiz-adv-x="291" d="M35 -266q48 75 78 152t44 164t14 190q0 101 -13 185.5t-41.5 159t-75.5 144.5q7 6 15 9.5t20 2.5q64 -92 103.5 -173.5t58 -161t18.5 -166.5q0 -97 -22 -184.5t-63 -168t-100 -158.5q-8 -1 -18.5 -0.5t-17.5 5.5z" />
<glyph unicode="*" horiz-adv-x="443" d="M60 640q3 14 11.5 31t21.5 27q23 -20 53 -43t59 -45q5 36 8 69t4 72q14 2 34 -1t33 -12q-13 -29 -26 -64.5t-25 -70.5q24 4 46.5 9t45.5 10.5t48 12.5q6 -13 8.5 -32t-0.5 -35q-32 2 -70 3.5t-75 2.5q17 -33 34.5 -61.5t38.5 -61.5q-12 -11 -26.5 -18t-34.5 -9 q-7 30 -17.5 66.5t-21.5 70.5q-25 -25 -47 -50.5t-46 -55.5q-13 7 -26.5 20.5t-18.5 29.5q26 16 57.5 37t61.5 43q-32 16 -63 29t-67 26z" />
<glyph unicode="+" d="M49 232q0 11 2.5 27.5t6.5 23.5h443q0 -15 -1.5 -27t-8.5 -23q-48 1 -81.5 1h-62.5h-64t-75.5 -0.5t-81 -0.5t-77.5 -1zM248 3q1 40 1 86.5t0.5 93.5t0.5 86v68.5v68t-1 87.5q11 7 22.5 8.5t26.5 1.5v-490q-7 -4 -23 -7t-27 -3z" />
<glyph unicode="," horiz-adv-x="259" d="M60 -170q64 72 64 127q0 21 -11.5 34t-35.5 16q0 10 2 28.5t6 31.5q23 5 43.5 12.5t36.5 17.5q17 -7 25.5 -25t8.5 -47q0 -59 -32 -114t-75 -96q-9 0 -18 4t-14 11z" />
<glyph unicode="-" horiz-adv-x="419" d="M60 225q0 17 4.5 36.5t11.5 32.5h283q0 -16 -3 -33.5t-10 -31.5q-27 0 -65 -0.5t-79 -1t-78 -1t-64 -1.5z" />
<glyph unicode="." horiz-adv-x="236" d="M48 54q0 28 20.5 48t52.5 20q31 0 48.5 -21t17.5 -41q0 -36 -21.5 -53t-49.5 -17q-32 0 -50 18t-18 46z" />
<glyph unicode="/" horiz-adv-x="365" d="M33 17l258 696q11 -3 23.5 -10.5t19.5 -15.5l-258 -696q-30 10 -43 26z" />
<glyph unicode="0" horiz-adv-x="601" d="M40 255q0 60 22.5 107t60.5 79t85 48.5t96 16.5q65 0 124 -29t96 -85t37 -137q0 -80 -35.5 -139.5t-94 -92t-127.5 -32.5t-129.5 32.5t-97.5 92t-37 139.5zM131 269q0 -37 13.5 -76t39.5 -72t63 -53t83 -20q49 0 79 25.5t44 68t14 91.5q0 34 -12.5 72.5t-37 72.5 t-60.5 55.5t-82 21.5q-47 0 -79 -25t-48.5 -67t-16.5 -94z" />
<glyph unicode="1" horiz-adv-x="388" d="M75 -3q0 11 1 22t4 21q25 1 40 9t22 26.5t7 51.5v246q0 33 -6 51t-20.5 26.5t-42.5 9.5q-2 9 -3.5 20.5t-1.5 22.5q12 -1 27.5 -1.5t32 -1t32 -0.5h27.5q21 0 42.5 0.5t41 1t35.5 1.5q0 -13 -1.5 -23.5t-3.5 -19.5q-26 -1 -41.5 -9.5t-21.5 -26.5t-6 -51v-246 q0 -33 6 -51.5t21.5 -26.5t41.5 -9q3 -10 4 -21t1 -22q-15 1 -31.5 1.5l-33 1t-31 0.5h-23.5h-28.5t-31 -0.5t-30.5 -1t-29 -1.5z" />
<glyph unicode="2" horiz-adv-x="537" d="M65 39q43 40 87 80t84 75q39 35 60 62t29 51.5t8 50.5q0 50 -22 76t-65 26q-39 0 -61.5 -28t-33.5 -111q-13 0 -28.5 1.5t-25.5 5.5q2 18 3 41.5t0 47t-5 41.5q29 21 71.5 34.5t96.5 13.5q46 0 84 -12.5t60.5 -41t22.5 -78.5q0 -31 -11 -56t-35 -51t-64 -63 q-28 -25 -59 -54.5t-75 -71.5l-15 12h173q28 0 42.5 3.5t20.5 16.5t7 41q14 0 25.5 -1.5t21.5 -5.5q0 -38 2.5 -66.5t8.5 -56.5q-4 -9 -12 -16t-20 -7q-48 1 -98.5 1.5t-94.5 0.5t-92 -0.5t-77 -1.5q-8 9 -10.5 18.5t-2.5 22.5z" />
<glyph unicode="3" horiz-adv-x="513" d="M50 -126q0 8 3.5 16.5t10.5 16.5q13 -9 45 -18.5t82 -9.5q39 0 78.5 17.5t66 52.5t26.5 87q0 58 -36 97t-109 39q-8 0 -16.5 -1.5t-15.5 -5.5q-8 8 -13 18t-5 17q59 76 100 129.5t67 90.5h-122q-29 0 -46 -5t-27.5 -19.5t-20.5 -45.5q-10 0 -21.5 3t-19.5 10 q8 37 9.5 70.5t1.5 68.5q17 0 41.5 -0.5t58 -1t75.5 -0.5t71.5 0.5t51.5 1t40 0.5q8 -7 10.5 -17.5t1.5 -22.5q-33 -40 -76.5 -94.5t-93.5 -119.5q49 3 93.5 -19t73 -67t28.5 -112q0 -58 -32 -108.5t-92 -81.5t-143 -31q-49 0 -86.5 13t-59.5 32z" />
<glyph unicode="4" horiz-adv-x="597" d="M45 32l341 474q12 0 25 -2.5t20 -7.5v-648q-12 0 -31 -4t-34.5 -8.5t-17.5 -6.5q-6 6 -8.5 14.5t-2.5 18.5v159v14v344l19 7l-217 -327l-8 20h264h22h101q11 0 18 -2t11 -7q-4 -9 -8.5 -22t-7 -25.5t-2.5 -22.5h-199q-76 0 -139.5 -2t-127.5 -4q-6 6 -12 16.5t-6 21.5z " />
<glyph unicode="5" horiz-adv-x="481" d="M60 -139q0 8 3 16.5t10 16.5q13 -5 40.5 -10t57.5 -5q40 0 74 19.5t55 56t21 85.5q0 43 -21 75.5t-55 54.5t-75 35t-80 17q-8 5 -12.5 14t-4.5 17l61 249q35 -1 63.5 -1.5t54.5 -0.5h55t40.5 14t11.5 34q9 3 21.5 4t23.5 1q-4 -27 -5 -58.5t-1 -66.5q-4 -8 -14.5 -13 t-30.5 -5h-44t-58.5 -0.5t-55.5 -1t-35 -1.5l-24 -101q86 -18 150 -47t99.5 -75t35.5 -117q0 -58 -23 -102t-60 -74.5t-80 -46t-83 -15.5q-37 0 -68 9.5t-47 22.5z" />
<glyph unicode="6" horiz-adv-x="506" d="M35 240q0 89 23.5 155t63 111.5t88.5 74t100.5 42t98.5 15.5q5 -6 7.5 -12.5t2.5 -18.5q-95 -19 -159 -59t-96.5 -112.5t-32.5 -191.5q0 -61 14 -100.5t35 -62.5t43.5 -32.5t40.5 -9.5q41 0 65.5 21t36 52.5t11.5 62.5q0 64 -23.5 99t-56.5 48.5t-63 13.5q-25 0 -50 -7.5 t-59 -30.5v36q47 33 82 47t72 14q86 0 136.5 -47t50.5 -136q0 -50 -16.5 -90.5t-46 -70t-67.5 -45t-81 -15.5q-71 0 -120.5 28.5t-74.5 84t-25 136.5z" />
<glyph unicode="7" horiz-adv-x="485" d="M48 350q6 26 10 50t6 49.5t3 53.5q39 -2 78.5 -2.5t99.5 -0.5h65.5t59 1t57.5 2q7 -8 10.5 -17t4.5 -21q-25 -36 -49.5 -76.5t-47 -81t-41.5 -77.5q-24 -47 -39.5 -88t-23.5 -81t-11.5 -84.5t-3.5 -97.5q-27 -11 -46.5 -26t-30.5 -29q-14 5 -21.5 16t-7.5 28 q0 63 28.5 144.5t79.5 181t119 215.5h-156q-28 0 -45.5 -5t-28 -20t-18.5 -46q-16 0 -28.5 3t-22.5 9z" />
<glyph unicode="8" horiz-adv-x="508" d="M50 141q0 70 39.5 114.5t110.5 85.5l33 -25q-35 -25 -55.5 -48.5t-29 -51t-8.5 -67.5q0 -52 33 -82.5t88 -30.5q47 0 74.5 27t27.5 73q0 37 -17.5 67t-51.5 59t-84 61q-44 29 -73.5 55t-44.5 53.5t-15 60.5q0 67 46.5 106t125.5 39q84 0 133 -35.5t49 -97.5 q0 -41 -19 -69.5t-48.5 -49t-60.5 -37.5l-36 23q41 23 57.5 50t16.5 70q0 47 -23.5 74t-63.5 27q-37 0 -59.5 -21.5t-23.5 -58.5q-1 -39 20.5 -66.5t73.5 -59.5q60 -37 103.5 -71t66.5 -72t23 -87q0 -76 -56.5 -120.5t-153.5 -44.5q-91 0 -144.5 40.5t-53.5 109.5z" />
<glyph unicode="9" horiz-adv-x="519" d="M40 283q0 54 17 95.5t48 70t71.5 43t86.5 14.5q76 0 125 -30t72.5 -89t23.5 -145q0 -79 -26 -142t-69 -111t-95.5 -81t-105.5 -52.5t-98 -25.5q-7 9 -8.5 17t-1.5 19q106 40 175 91.5t103 120t34 157.5q0 121 -39 174t-104 53q-34 0 -60 -19.5t-41 -52.5t-15 -72 q0 -52 15.5 -84.5t40 -49t52 -22.5t52.5 -6q30 0 58 11.5t48 33.5l-4 -45q-37 -34 -73 -48.5t-77 -14.5q-56 0 -102.5 24t-74.5 66.5t-28 99.5z" />
<glyph unicode=":" horiz-adv-x="236" d="M60 78q0 23 17 40t44 17q26 0 40.5 -17.5t14.5 -34.5q0 -30 -18 -44t-41 -14q-27 0 -42 15t-15 38zM60 364q0 23 17 40t44 17q26 0 40.5 -17.5t14.5 -34.5q0 -30 -18 -44t-41 -14q-27 0 -42 15t-15 38z" />
<glyph unicode=";" horiz-adv-x="259" d="M60 -170q64 72 64 127q0 21 -11.5 34t-35.5 16q0 10 2 28.5t6 31.5q23 5 43.5 12.5t36.5 17.5q17 -7 25.5 -25t8.5 -47q0 -59 -32 -114t-75 -96q-9 0 -18 4t-14 11zM82 364q0 23 17 40t44 17q26 0 40.5 -17.5t14.5 -34.5q0 -30 -18 -44t-41 -14q-27 0 -42 15t-15 38z" />
<glyph unicode="&#x3c;" d="M66 234q-6 32 8 53l361 218q23 -8 38 -33l-356 -212l349 -186q3 -14 0.5 -31t-10.5 -25q-100 59 -199.5 114.5t-190.5 101.5z" />
<glyph unicode="=" d="M57 147q0 11 3 27t7 23h427q0 -16 -2 -27t-8 -22q-39 1 -68.5 1h-60h-72.5h-77.5t-69.5 -0.5t-79 -1.5zM57 313q0 11 3.5 26.5t7.5 22.5h425q0 -15 -2 -26t-8 -22q-39 1 -68 1h-59.5h-72.5h-77.5t-69 -0.5t-79.5 -1.5z" />
<glyph unicode="&#x3e;" d="M75 472q9 14 18.5 22t23.5 12l369 -229q5 -26 -9 -49q-74 -37 -133.5 -70t-118 -67.5t-129.5 -76.5q-7 9 -10 24t0 29l368 202l-1 -20z" />
<glyph unicode="?" horiz-adv-x="537" d="M120 554q3 35 3.5 60.5t-3.5 56.5q25 16 61.5 29.5t92.5 13.5q71 0 116 -33t45 -95q0 -39 -14.5 -70t-36 -58t-43.5 -54.5t-36.5 -60t-14.5 -74.5q0 -12 3.5 -33t7.5 -35q-9 -5 -17.5 -6.5t-18.5 -1.5q-16 11 -31 45t-15 77q0 40 13 69t32 52t37.5 44t31.5 44t13 53 q0 43 -24.5 69.5t-56.5 26.5q-25 0 -42.5 -13t-28.5 -41.5t-17 -74.5q-14 0 -30.5 2.5t-26.5 7.5zM204 54q0 28 20.5 48t52.5 20q31 0 48.5 -20.5t17.5 -41.5q0 -36 -21.5 -53t-49.5 -17q-32 0 -50 18t-18 46z" />
<glyph unicode="@" horiz-adv-x="997" d="M125 228q0 90 27.5 168t80 137.5t129 93t174.5 33.5q113 0 187.5 -41t111.5 -109t37 -151q0 -81 -20.5 -148t-54 -116.5t-72.5 -76.5t-77 -27q-39 0 -53.5 26t-14.5 72q0 26 0.5 72t1.5 101t2.5 107t2.5 89q13 0 27.5 2t28.5 7q9 -3 14 -11.5t6.5 -28t1.5 -56.5v-191 q0 -49 2 -73t10 -31t24 -7q20 0 49 32t51 95t22 155q0 72 -33 133t-99 98t-165 37q-113 0 -188.5 -49.5t-113 -136t-37.5 -196.5q0 -78 21.5 -149t65.5 -126t110 -87t156 -32q83 0 156.5 27.5t125.5 86.5q13 -2 20.5 -8t10.5 -17q-30 -42 -80.5 -72t-114 -46t-132.5 -16 q-136 0 -225 55.5t-132.5 153t-43.5 221.5zM315 198q0 79 23.5 139.5t66 95t97.5 34.5q29 0 53 -2.5t55 -10.5l-17 -67q-22 18 -48 26.5t-49 8.5q-32 0 -52 -20t-29.5 -62.5t-9.5 -111.5q0 -87 18 -121t42 -34q17 0 41.5 29.5t47 89t30.5 147.5l27 24q-3 -74 -16.5 -141 t-35.5 -119t-52 -82t-68 -30q-55 0 -89.5 47t-34.5 160z" />
<glyph unicode="A" horiz-adv-x="704" d="M25 -3q0 10 1.5 21.5t5.5 20.5q18 4 30 14t23.5 32.5t26.5 61.5l207 531q10 2 18.5 3t20.5 1l238 -546q17 -37 28 -57t22.5 -28t26.5 -11q4 -13 5 -22t1 -21q-10 1 -31 1.5t-44 1t-39 0.5q-12 0 -28 -0.5t-33 -1t-30.5 -1t-21.5 -0.5q0 12 1.5 23t5.5 20q41 4 49 18 q2 4 2 10q0 16 -15 50l-139 325q-13 31 -23 55t-24 61h5q-12 -38 -21.5 -64.5t-18.5 -50.5l-114 -297q-16 -43 -16 -66q0 -9 2 -15q8 -22 50 -26q4 -9 5.5 -20t1.5 -23q-11 1 -27 1.5t-33.5 1t-34.5 0.5q-25 0 -47 -1t-36 -2zM176 216l16 49h257l9 -45q-67 0 -143.5 -1 t-138.5 -3z" />
<glyph unicode="B" horiz-adv-x="623" d="M56 -3q0 14 1 24.5t4 18.5q27 2 42 10t21.5 28.5t6.5 59.5v411q0 34 -6 52t-21 26t-42 9q-3 8 -4 19.5t-1 23.5q20 -1 48.5 -2t55.5 -1q24 0 48 0.5l48 1t47 0.5q58 0 106 -12t77.5 -43.5t29.5 -90.5q0 -64 -39 -109.5t-106 -55.5q53 -3 97.5 -19.5t71.5 -52.5t27 -98 q0 -54 -24.5 -99t-77.5 -71.5t-138 -26.5h-66.5t-78.5 -0.5t-74 -1t-53 -1.5zM211 626l14 15v-503q0 -41 7.5 -61.5t28 -27t57.5 -6.5q74 0 108.5 37.5t34.5 102.5q0 47 -19 76.5t-50.5 45t-69 21.5t-74.5 6h-35v43h43q65 0 99 18t47 47.5t13 61.5q0 52 -23.5 80.5t-58 40 t-67.5 11.5q-13 0 -25.5 -1.5t-29.5 -6.5z" />
<glyph unicode="C" horiz-adv-x="653" d="M35 343q0 86 28 150t75.5 107t107 64t123.5 21q63 0 115 -13t107 -39q-7 -35 -9 -74.5t-2 -80.5q-13 -5 -25 -7t-28 -2q-2 71 -21 109t-52 52t-77 14q-63 0 -108 -23t-73.5 -61.5t-42 -87.5t-13.5 -102q0 -89 30.5 -161.5t87.5 -114.5t137 -42q48 0 98 16t92 43 q6 -5 11.5 -14.5t6.5 -16.5q-59 -46 -116.5 -67.5t-133.5 -21.5q-93 0 -164.5 44.5t-112.5 124t-41 183.5z" />
<glyph unicode="D" horiz-adv-x="730" d="M56 -3q0 14 1 24.5t4 18.5q27 2 42 10t21.5 28.5t6.5 59.5v411q0 34 -6 52t-21 26t-42 9q-3 8 -4 19.5t-1 23.5q16 -1 40.5 -1.5t51 -1t48.5 -0.5q29 0 59 1t59 1q53 0 107 -7.5t103 -27t87.5 -56t60.5 -93t22 -139.5q0 -81 -20 -139t-53.5 -97t-74.5 -63t-83.5 -36 t-81.5 -16t-67 -4h-64.5t-74 -0.5t-69.5 -1t-51 -1.5zM217 628l8 26v-516q0 -37 7 -57t26.5 -28t56.5 -8q60 0 110.5 14.5t88 48t58 90.5t20.5 142q0 81 -24.5 138.5t-66 93t-94 52t-108.5 16.5q-22 0 -48 -3.5t-34 -8.5z" />
<glyph unicode="E" horiz-adv-x="601" d="M56 -3q0 14 1 24.5t4 18.5q27 2 42 10t21 28.5t6 59.5v411q0 34 -6 52t-21 26t-42 9q-3 8 -4 19.5t-1 23.5q15 -1 37.5 -1.5t47.5 -1t47.5 -0.5h35.5v-538q0 -37 7 -57t27 -28t57 -8v-45h-64.5t-74 -0.5t-69.5 -1t-51 -1.5zM203 636l21 40q79 0 135.5 0.5t93 1.5t52.5 1 q2 -22 5 -51t7 -57t9 -50q-8 -7 -19.5 -9.5t-25.5 -2.5q-2 31 -16 60t-48.5 48t-99.5 19h-114zM215 319v43h72q62 0 86 16t25 65q13 4 24 5.5t24 1.5q-1 -25 -1.5 -54t-0.5 -55v-58t2 -58q-13 0 -24 1t-22 4q-4 52 -27.5 70.5t-85.5 18.5h-72zM315 0v45h6q72 0 108.5 14.5 t54.5 42.5t32 69q15 -4 25 -9.5t19 -14.5q-11 -34 -18.5 -74t-12.5 -75q-19 1 -51.5 1t-74 0.5t-88.5 0.5z" />
<glyph unicode="F" horiz-adv-x="561" d="M56 -3q0 14 1 24.5t4 18.5q27 2 42 9.5t21 26t6 51.5v422q0 34 -6 52t-21 26t-42 9q-3 8 -4 19t-1 24q17 -1 38 -1.5t44.5 -1t45.5 -0.5h40v-529q0 -43 9 -65.5t29 -31t51 -10.5q3 -8 4 -18.5t1 -24.5q-15 1 -35.5 1.5t-43.5 1t-47 0.5q-35 0 -75.5 -0.5t-60.5 -2.5z M199 636l22 40h135.5t92.5 1.5t52 1.5q2 -22 5 -51t7 -57t9 -50q-8 -7 -19.5 -9.5t-25.5 -2.5q-2 31 -16 60t-48.5 48t-99.5 19h-114zM221 299v43h72q62 0 86 16t25 65q13 4 24 5.5t24 1.5q-1 -25 -1.5 -54t-0.5 -55v-58t2 -58q-13 0 -24 1t-22 4q-4 52 -27.5 70.5 t-85.5 18.5h-72z" />
<glyph unicode="G" horiz-adv-x="731" d="M35 347q0 84 29 147.5t78.5 105.5t111.5 63.5t128 21.5q72 0 134 -13t106 -34q-7 -35 -9 -73t-2 -82q-12 -4 -24.5 -6.5t-28.5 -2.5q-2 70 -25 106.5t-60 50t-83 13.5q-85 0 -140.5 -39t-82 -101.5t-26.5 -134.5q0 -91 27 -165.5t81 -119t135 -44.5q30 0 53.5 3t47.5 13 q17 8 25.5 22.5t8.5 52.5v50q0 46 -5.5 66.5t-24 26.5t-56.5 7q-3 8 -4.5 21t-1.5 25q19 -1 55 -2t67 -1t66 0.5t51 1.5q0 -9 -1 -22t-5 -23q-20 -1 -30 -7t-13.5 -27t-3.5 -66v-45q0 -21 2.5 -38t10.5 -32q-43 -31 -110 -53t-152 -22q-98 0 -172.5 44t-115.5 124t-41 188z " />
<glyph unicode="H" horiz-adv-x="753" d="M56 -3q0 14 1 24.5t4 18.5q27 2 42 9.5t21 26t6 51.5v422q0 34 -6 52t-21 26t-42 9q-3 8 -4 19t-1 24q19 -1 38.5 -1.5t40.5 -1t42 -0.5q22 0 42 0.5t39.5 1t39.5 1.5q0 -13 -1 -24t-4 -19q-26 -1 -41.5 -9t-21.5 -26t-6 -52v-422q0 -33 6 -51.5t21.5 -26t41.5 -9.5 q3 -8 4 -18.5t1 -24.5q-30 2 -61 2.5t-60 0.5t-62 -0.5t-59 -2.5zM219 319v49h315v-43h-70t-87.5 -0.5t-87 -2t-70.5 -3.5zM455 -3q0 14 1 24.5t4 18.5q27 2 42 9.5t21 26t6 51.5v422q0 34 -6 52t-21 26t-42 9q-3 8 -4 19t-1 24q19 -1 38.5 -1.5t40.5 -1t42 -0.5 q22 0 42 0.5t39.5 1t39.5 1.5q0 -13 -1 -24t-4 -19q-26 -1 -41.5 -9t-21.5 -26t-6 -52v-422q0 -33 6 -51.5t21.5 -26t41.5 -9.5q3 -8 4 -18.5t1 -24.5q-30 2 -61 2.5t-60 0.5t-62 -0.5t-59 -2.5z" />
<glyph unicode="I" horiz-adv-x="354" d="M56 -3q0 14 1 24.5t4 18.5q27 2 42 9.5t21 26t6 51.5v422q0 34 -6 52t-21 26t-42 9q-3 8 -4 19t-1 24q19 -1 38.5 -1.5t40.5 -1t42 -0.5q22 0 42 0.5t39.5 1t39.5 1.5q0 -13 -1 -24t-4 -19q-26 -1 -41.5 -9t-21.5 -26t-6 -52v-422q0 -33 6 -51.5t21.5 -26t41.5 -9.5 q3 -8 4 -18.5t1 -24.5q-30 2 -61 2.5t-60 0.5t-62 -0.5t-59 -2.5z" />
<glyph unicode="J" horiz-adv-x="329" d="M3 -223q38 32 64 67t39.5 81t13.5 109v515q0 34 -6 52t-21 26t-42 9q-3 8 -4 19t-1 24q15 -1 34.5 -1.5t42 -1t44.5 -0.5q33 0 68 1t53 2q0 -13 -1 -24t-4 -19q-25 -1 -40.5 -9t-22 -26t-6.5 -52v-424q0 -70 -6.5 -124t-26.5 -97.5t-58.5 -80.5t-102.5 -72q-7 4 -11 11 t-6 15z" />
<glyph unicode="K" horiz-adv-x="678" d="M56 -3q0 14 1 24.5t4 18.5q27 2 42 9.5t21 26t6 51.5v422q0 34 -6 52t-21 26t-42 9q-3 8 -4 19t-1 24q19 -1 38.5 -1.5t40.5 -1t42 -0.5q22 0 42 0.5t39.5 1t39.5 1.5q0 -13 -1 -24t-4 -19q-26 -1 -41.5 -9t-21.5 -26t-6 -52v-422q0 -33 6 -51.5t21.5 -26t41.5 -9.5 q3 -8 4 -18.5t1 -24.5q-30 2 -61 2.5t-60 0.5t-62 -0.5t-59 -2.5zM209 339l204 214q38 39 38 60t-34 23q-3 10 -4 21t-1 22q17 -1 45 -2t58 -1q20 0 38.5 0.5t35 1t29.5 1.5q0 -10 -1 -22t-5 -21q-22 -1 -42.5 -8.5t-44 -25.5t-55.5 -53l-175 -186v24q42 -37 95.5 -101.5 t114.5 -143.5q25 -32 44 -53t43.5 -32t63.5 -14q0 -8 -1 -20t-4 -23h-39t-41 -1t-41 -2t-38 -3q-18 29 -50 74.5t-72.5 96.5t-82.5 97t-78 77z" />
<glyph unicode="L" horiz-adv-x="560" d="M56 -3q0 14 1 24.5t4 18.5q27 2 42 10t21.5 28.5t6.5 59.5v411q0 34 -6 52t-21 26t-42 9q-3 8 -4 19.5t-1 23.5q20 -1 42.5 -1.5t43.5 -1t35 -0.5q22 0 42 0.5t39.5 1t39.5 1.5q0 -13 -1 -24t-4 -19q-26 -1 -41.5 -9t-21.5 -27t-6 -54v-408q0 -37 7 -57t26.5 -28t56.5 -8 h6q56 0 88 12t51.5 40t35.5 74q15 -4 25 -9.5t19 -14.5q-11 -34 -18.5 -74t-12.5 -75q-19 1 -50.5 1t-69 0.5t-74.5 0.5h-64.5t-74 -0.5t-69.5 -1t-51 -1.5z" />
<glyph unicode="M" horiz-adv-x="931" d="M35 -3q0 7 1 20t4 23q27 3 42.5 13.5t24.5 40.5t14 91l32 356q1 13 1 23q0 20 -4 34q-6 20 -21 29t-43 9q-3 10 -4 22t-1 21q10 -1 23 -1.5t27 -1t26 -0.5h25.5t25 1t25.5 2l262 -579h-22l228 579q12 -1 25 -1.5t26.5 -1t26.5 -0.5h25.5t25 1t25.5 2q0 -10 -1 -21t-4 -22 q-34 0 -54 -20q-15 -16 -15 -55q0 -12 1 -26l36 -367q5 -49 13 -76t22.5 -38t37.5 -13q3 -10 4 -22t1 -22q-12 1 -27 1.5t-31.5 1t-32 0.5h-29.5q-18 0 -40 -0.5t-43.5 -1t-38.5 -1.5q0 9 1.5 21t4.5 22q32 3 46 13q16 10 18 34q1 8 0 18q0 20 -3 50l-38 364h11l-216 -521 q-9 -4 -19 -5.5t-22 -1.5l-241 524h10l-34 -339q-3 -29 -3 -51q0 -19 2 -31q4 -28 20.5 -39.5t45.5 -14.5q3 -10 4 -23t1 -20q-24 2 -54.5 2.5t-52.5 0.5q-14 0 -32.5 -0.5t-36 -1t-31.5 -1.5z" />
<glyph unicode="N" horiz-adv-x="742" d="M56 -3q0 13 1 23.5t4 19.5q27 0 42 13t21 45.5t6 88.5v423h51v-423q0 -56 6 -88.5t21 -45.5t42 -13q3 -9 4 -19t1 -24q-15 1 -32.5 1.5t-34.5 1t-32 0.5q-14 0 -33 -0.5t-36.5 -1t-30.5 -1.5zM56 679q10 -1 22.5 -1.5t26 -1t25.5 -0.5q19 0 36.5 1t30.5 2l399 -529 l-2 -156l-468 611q-14 18 -27 23.5t-38 7.5q-3 11 -4 23t-1 20zM512 679q15 -1 31 -1.5t32.5 -1t30.5 -0.5q21 0 48 1t47 2q0 -10 -1 -21t-4 -22q-22 0 -35 -13t-18.5 -43.5t-5.5 -85.5v-494q-8 -3 -20 -4.5t-23 -1.5l-8 100v400q0 55 -6 85.5t-21 43.5t-42 13 q-3 17 -4 25.5t-1 17.5z" />
<glyph unicode="O" horiz-adv-x="731" d="M35 340q0 77 25.5 140t70.5 109t105 71t129 25q96 0 170.5 -43.5t117.5 -121t43 -180.5q0 -74 -24 -137.5t-68.5 -111t-105 -74t-133.5 -26.5q-99 0 -173 46t-115.5 125t-41.5 178zM138 367q0 -63 16 -122t47.5 -105t77.5 -73t106 -27q65 0 111.5 36.5t71.5 99t25 138.5 q0 90 -32.5 163.5t-88.5 116.5t-128 43q-59 0 -105.5 -33.5t-73.5 -94.5t-27 -142z" />
<glyph unicode="P" horiz-adv-x="581" d="M56 -3q0 14 1 24.5t4 18.5q27 2 42 9.5t21 26t6 51.5v422q0 34 -6 52t-21 26t-42 9q-3 8 -4 19t-1 24q39 -2 75.5 -2.5t60.5 -0.5h39.5t50.5 1t37 1q83 0 133 -27t72 -71t22 -96q0 -57 -25.5 -110t-75.5 -87t-126 -34q-42 0 -70 11q-2 11 -2 21t3 20q13 -3 26 -4.5 t27 -1.5q37 0 69 13t52 46.5t20 96.5q0 80 -39.5 129.5t-129.5 49.5q-11 0 -25.5 -1.5t-40.5 -7.5l15 15v-493q0 -43 9 -65.5t29 -31t51 -10.5q3 -8 4 -18.5t1 -24.5q-15 1 -35.5 1.5t-43.5 1t-47 0.5q-23 0 -50 -0.5t-50 -1t-36 -1.5z" />
<glyph unicode="Q" horiz-adv-x="731" d="M35 340q0 77 25.5 140t70.5 109t105 71t129 25q96 0 170.5 -43.5t117.5 -121t43 -180.5q0 -74 -24 -137.5t-68.5 -111t-105 -74t-133.5 -26.5q-99 0 -173 46t-115.5 125t-41.5 178zM138 367q0 -63 16 -122t47.5 -105t77.5 -73t106 -27q65 0 111.5 36.5t71.5 99t25 138.5 q0 90 -32.5 163.5t-88.5 116.5t-128 43q-59 0 -105.5 -33.5t-73.5 -94.5t-27 -142zM365 -9l94 27q40 -8 70 -23.5t56 -33t52 -32.5t57 -23q21 -5 46 -5q12 0 26 1q0 -9 -1.5 -19.5t-4.5 -20.5q-29 -9 -57.5 -19t-66.5 -27q-39 10 -64 29t-44.5 42t-39.5 45t-49 38t-74 21z " />
<glyph unicode="R" horiz-adv-x="684" d="M56 -3q0 11 1 22t4 21q27 2 42 9.5t21 26t6 51.5v422q0 34 -6 52.5t-21 26.5t-42 8q-3 10 -4 20t-1 22q15 -1 50 -1.5t70 -0.5q41 0 83 1t84 1q76 0 124 -22t71 -60t23 -86q0 -46 -22 -83.5t-62.5 -63t-96.5 -38.5l5 12q28 -29 47.5 -55t40.5 -59t50 -83 q21 -35 37.5 -55.5t38.5 -30t59 -11.5q0 -12 -0.5 -22t-3.5 -21q-37 0 -78.5 -1.5t-78.5 -7.5q-20 33 -33 55.5t-23 42t-23 42.5q-19 36 -37 65t-41.5 59t-58.5 66l26 -13q-26 -1 -48 -1t-42 1v47q14 -2 26 -3t25 -1q55 0 99 15.5t70 48.5t26 85q0 59 -37.5 96.5 t-127.5 37.5q-23 0 -41 -2t-38 -7l5 11v-509q0 -33 6 -51.5t20.5 -26t39.5 -9.5q3 -9 4 -20.5t1 -22.5q-21 2 -44 2.5t-42.5 0.5h-32.5q-26 0 -61.5 -0.5t-58.5 -2.5z" />
<glyph unicode="S" horiz-adv-x="552" d="M68 55q6 38 7.5 76t1.5 66q11 3 26 4.5t28 1.5q3 -51 18.5 -87.5t49 -56.5t86.5 -20q69 0 98.5 30.5t29.5 73.5q0 44 -24 72.5t-62 48.5t-80.5 39t-80.5 44t-62 62.5t-24 95.5q0 56 24.5 96.5t69.5 62t107 21.5q35 0 66.5 -6t57.5 -16t43 -22q0 -29 1 -67t5 -65 q-11 -4 -26.5 -6.5t-29.5 -2.5q-10 58 -26 88t-39 41.5t-53 11.5q-53 0 -83 -26t-30 -73q0 -44 24 -73t62 -50t80 -40.5t80 -44t62 -60.5t24 -91q0 -50 -24 -94t-74 -71t-130 -27q-62 0 -108.5 17.5t-94.5 46.5z" />
<glyph unicode="T" horiz-adv-x="585" d="M25 519q8 42 12 84t4 76q28 -1 68.5 -2t88 -1h98.5h99.5t89.5 1t68 2v-29v-45q2 -38 6 -86q-10 -5 -22.5 -7.5t-27.5 -1.5q-1 59 -27.5 90.5t-85.5 31.5h-198q-48 0 -72.5 -15.5t-35 -42.5t-17.5 -64q-11 0 -25 2t-23 7zM164 -3q0 14 1 24.5t4 18.5q32 2 49.5 9.5t24 26 t6.5 51.5v522h94v-522q0 -33 6 -51.5t23 -26t49 -9.5q3 -8 4 -18.5t1 -24.5q-32 2 -65.5 2.5t-65.5 0.5q-21 0 -44.5 -0.5t-45.5 -1t-41 -1.5z" />
<glyph unicode="U" horiz-adv-x="675" d="M42 679q20 -1 52.5 -2t63.5 -1h31t31 0.5t29 1t25 1.5q0 -10 -1 -21t-4 -22q-29 -2 -44 -8.5t-20 -24t-5 -54.5v-304q0 -56 15 -102t52 -72.5t103 -26.5q25 0 55 8.5t51 29.5q16 16 25 37t13.5 55t4.5 87v248q0 48 -5 74.5t-19.5 38.5t-44.5 14q-3 15 -4 24t-1 19 q12 -1 28 -1.5t33.5 -1t32.5 -0.5q23 0 49.5 1t45.5 2q0 -7 -1 -16.5t-4 -26.5q-23 -2 -36 -13.5t-18 -38t-5 -75.5v-240q0 -86 -11 -136t-46 -85q-28 -28 -69.5 -42.5t-92.5 -14.5q-93 0 -146.5 27.5t-76 81.5t-22.5 131v318q0 36 -4.5 53.5t-17 24t-37.5 9.5q-3 11 -4 22 t-1 21z" />
<glyph unicode="V" horiz-adv-x="686" d="M25 679q10 -1 24 -1.5t30.5 -1t33.5 -0.5h33q32 0 62.5 1t58.5 2q0 -9 -1.5 -20.5t-3.5 -22.5q-33 -2 -49 -10q-14 -7 -14 -26q1 -4 1 -6q2 -22 22 -68q27 -64 53 -130t51.5 -133.5t51.5 -139.5h-15q29 65 55.5 129t52 129.5t49.5 132.5q14 40 14 67q0 11 -2 19 q-8 30 -53 36q-3 11 -4 23t-1 20q15 -1 28.5 -1.5t27.5 -1t29 -0.5q23 0 51.5 1t50.5 2q0 -11 -1 -21.5t-4 -21.5q-31 -7 -49 -37.5t-37 -80.5q-50 -129 -102.5 -259t-106.5 -261q-10 -2 -18.5 -3t-20.5 -1q-36 97 -72.5 191.5t-70.5 180.5t-64 155q-21 49 -33 73t-23 32 t-29 10q-3 12 -4 23.5t-1 19.5z" />
<glyph unicode="W" horiz-adv-x="1003" d="M25 679q12 -1 26.5 -1.5t30 -1t30 -0.5h26.5q16 0 37 0.5t43.5 1t40.5 1.5q0 -8 -1 -19.5t-4 -23.5q-34 -2 -50 -9q-14 -6 -14 -23q0 -19 17 -71q20 -61 42.5 -132t44.5 -142.5t40 -133.5h-22l188 554q8 3 18 4t26 1q33 -86 68 -182t69.5 -191.5t64.5 -182.5h-20l115 366 q16 51 16 81q0 15 -4 25q-11 30 -60 36q-4 10 -5.5 22.5t-1.5 20.5q21 -1 45.5 -2t51.5 -1q23 0 49 1t46 2q0 -10 -1.5 -21t-5.5 -22q-17 -4 -29.5 -17t-24.5 -43t-30 -85l-156 -494q-8 -3 -18.5 -4.5t-21.5 -1.5q-30 86 -64 179t-68.5 186.5t-67.5 178.5h9l-180 -538 q-5 -2 -12.5 -3.5t-15 -2t-15.5 -0.5q-40 133 -82 266t-86 264q-18 54 -29 77t-21.5 29.5t-28.5 8.5q-3 10 -4 21.5t-1 21.5z" />
<glyph unicode="X" horiz-adv-x="667" d="M40 -3q0 8 1 21.5t5 23.5q24 6 53 28.5t66 73.5l133 190l29 -39l-95 -140q-24 -37 -32 -61q-3 -9 -3 -16q0 -12 7 -20q12 -12 45 -18q3 -10 4 -21.5t1 -21.5q-25 2 -53.5 2.5t-56.5 0.5q-19 0 -37.5 -0.5t-35.5 -1t-31 -1.5zM56 679q18 -1 39 -1.5t42.5 -1t40.5 -0.5 q29 0 63.5 0.5t57.5 1.5q0 -9 -1 -20t-3 -22q-28 -6 -40 -16q-8 -7 -8 -18q0 -6 2 -14q6 -22 30 -59q41 -62 80.5 -124t77.5 -124t75 -124q21 -35 36.5 -57t27 -34.5t22.5 -18t23 -7.5q3 -9 4.5 -20.5t1.5 -22.5q-14 1 -35 1.5t-43.5 1t-43.5 0.5q-20 0 -42.5 -0.5t-43 -0.5 t-35.5 -1q0 9 1 20.5t3 21.5q26 2 38 10q9 6 10 19q0 5 -2 11q-4 22 -30 64q-36 62 -74.5 124t-78 124t-80.5 124q-27 41 -43 64t-26 34t-19 15t-21 6q-4 12 -5 23t-1 21zM339 369l95 149q37 58 37 83q0 3 -1 5q-5 24 -51 30q-3 11 -4 23t-1 20q17 -1 34.5 -1.5l35 -1 t32.5 -0.5t33.5 0.5t36 1t29.5 1.5q0 -10 -0.5 -21t-3.5 -22q-15 -4 -30 -13.5t-35 -32.5t-50 -69l-127 -193z" />
<glyph unicode="Y" horiz-adv-x="630" d="M25 678q14 0 31 -0.5t35.5 -1t37.5 -0.5h44.5t50 0.5t39.5 1.5q0 -11 -1 -19.5t-4 -19.5q-39 -4 -44 -21q-2 -4 -2 -9q0 -18 18 -52q27 -52 58.5 -117t62.5 -135h-8q32 71 60.5 131t51.5 106q21 42 21 62q0 5 -1 9q-7 18 -47 24q-3 11 -5 20.5t-2 20.5q18 -1 47 -1.5 t51 -0.5q23 0 46 0.5t40 1.5q0 -10 -1 -19t-3 -20q-27 -7 -51 -32t-50 -76l-143 -287h-78l-174 334q-16 31 -31 44.5t-43 14.5q-4 11 -5 21t-1 20zM185 -2q0 11 1.5 22t4.5 20q36 3 53 10.5t22 30t5 69.5v114h94v-101q0 -53 5 -77.5t21.5 -32.5t50.5 -13q3 -9 4.5 -20 t1.5 -23l-66 2t-61 1q-22 0 -48.5 -0.5t-50 -0.5t-37.5 -1z" />
<glyph unicode="Z" horiz-adv-x="631" d="M58 29q48 77 95 154l94 154t93 154.5t91 155.5l11 -11h-159q-44 0 -71.5 -9.5t-44 -36.5t-27.5 -82q-13 0 -30 2t-27 8q9 32 14 76t5 84q15 0 45.5 -0.5t67 -1t71.5 -0.5h60h63.5h62t66.5 2q5 -5 8 -14t3 -19q-62 -108 -123.5 -212.5t-124 -205.5t-127.5 -202l-10 17h175 q62 0 96.5 9t52 36t28.5 82q33 -3 52 -17q-5 -22 -9 -48t-6 -53.5t-3 -53.5q-49 2 -91 2.5t-83 0.5h-87q-69 0 -130.5 -0.5t-92.5 -2.5q-4 8 -6 15t-2 17z" />
<glyph unicode="[" horiz-adv-x="272" d="M35 -269v1011q26 -1 51 -1.5t44 -0.5q26 0 47 0.5t49 1.5q7 -6 9 -16.5t2 -21.5q-53 -4 -82 -11t-39.5 -25.5t-10.5 -57.5v-767q0 -32 13.5 -46.5t40.5 -19t67 -6.5q7 -7 9 -16.5t2 -23.5q-21 2 -48.5 2h-47.5h-52.5t-53.5 -2z" />
<glyph unicode="\" horiz-adv-x="380" d="M31 709q5 2 12 3t14 1q8 0 15.5 -1t11.5 -3l263 -709q-7 -3 -26 -4t-26 1z" />
<glyph unicode="]" horiz-adv-x="272" d="M35 -269q0 14 2 23.5t9 16.5q41 2 67.5 6.5t40 19t13.5 46.5v767q0 39 -10.5 57.5t-39 25.5t-82.5 11q0 11 2 21.5t9 16.5q29 -1 49.5 -1.5t46.5 -0.5q20 0 44.5 0.5t50.5 1.5v-1011q-25 2 -53 2h-53h-47.5t-48.5 -2z" />
<glyph unicode="^" d="M42 430l206 255q11 7 26.5 9t28.5 0q27 -41 63 -93t73 -104t68 -93q-9 -7 -25.5 -10t-30.5 0l-175 250q-55 -66 -109.5 -134t-97.5 -127q-11 10 -17 20.5t-10 26.5z" />
<glyph unicode="_" d="M32 -143q0 16 2.5 28.5t9.5 22.5h474q0 -10 -3.5 -26t-8.5 -24q-55 1 -93.5 1h-73h-76.5q-37 0 -71 -0.5t-72 -0.5t-88 -1z" />
<glyph unicode="`" horiz-adv-x="300" d="M66 704q20 10 45.5 11t50.5 -3q13 -43 30 -86.5t41 -88.5q-9 -4 -19.5 -3.5t-20.5 1.5q-34 54 -64.5 94.5t-62.5 74.5z" />
<glyph unicode="a" horiz-adv-x="498" d="M50 99q0 39 18.5 66.5t48 46t64 29.5t67.5 17t58 10q0 41 -1.5 64t-6 36.5t-13.5 23.5q-12 15 -27.5 22.5t-34.5 7.5q-33 0 -52 -20.5t-27 -47.5t-9 -48q-11 0 -27.5 1.5t-24.5 5.5q1 17 1 36v20q-1 31 -6 53q41 21 86.5 33t83.5 12q37 0 63.5 -10.5t42.5 -27.5 q26 -25 34 -65.5t8 -107.5v-110q0 -28 4.5 -44.5t17.5 -24t40 -9.5q0 -10 -1 -22.5t-5 -23.5q-25 -1 -55.5 -9.5t-53.5 -21.5q-11 5 -17.5 18t-6.5 41q0 9 1 21.5t4 22.5h2q-3 -16 -13.5 -34.5t-27.5 -32.5q-17 -15 -43 -24.5t-63 -9.5q-63 0 -96 28.5t-33 77.5zM147 119 q0 -37 18 -54t42 -17q22 0 45 14.5t38.5 45.5t15.5 81v38q-25 -3 -53 -8.5t-52 -16.5t-39 -30.5t-15 -52.5z" />
<glyph unicode="b" horiz-adv-x="547" d="M10 646q0 11 2 20t7 17q15 0 42.5 5t53.5 13t38 16q9 -3 15.5 -12t6.5 -28v-261q0 -18 -2 -30.5t-4 -23.5l-4 -89l-19 46q13 32 22.5 49t14.5 25q9 15 28.5 32.5t47.5 29.5t61 12q59 0 100.5 -23.5t64 -72.5t22.5 -126q0 -70 -31 -127.5t-87 -92t-131 -34.5q-45 0 -82 9 t-65 24.5t-48 34.5q11 14 16.5 41t5.5 86v389q0 24 -4.5 39.5t-20.5 23.5t-50 8zM161 86q20 -21 43.5 -35t58.5 -14q21 0 45.5 8.5t47.5 29.5t37.5 59t14.5 98q0 64 -19 101.5t-45 54t-48 16.5q-29 0 -57 -18.5t-46 -60.5t-18 -112v-159z" />
<glyph unicode="c" horiz-adv-x="447" d="M40 227q0 60 24 115t70.5 90t113.5 35q46 0 84.5 -11t66.5 -34q-4 -29 -5.5 -57t-1.5 -57q-8 -4 -21.5 -6t-24.5 -2q-6 58 -34 89t-72 31q-49 0 -78 -46t-29 -132q0 -50 16.5 -94.5t48.5 -72t78 -27.5q32 0 60.5 15t50.5 43q8 -4 15 -11.5t10 -16.5q-27 -43 -67 -65 t-97 -22q-51 0 -98.5 26.5t-78.5 79t-31 130.5z" />
<glyph unicode="d" horiz-adv-x="564" d="M40 213q0 70 31 127.5t87 92t131 34.5q29 0 50.5 -5t46.5 -13v-77q-20 21 -43.5 35t-58.5 14q-21 0 -45.5 -8.5t-47.5 -29.5t-37.5 -59t-14.5 -98q0 -64 19 -101.5t45 -54t48 -16.5q30 0 57.5 18.5t45.5 60.5t18 112l29 -106q-13 -32 -22.5 -49t-14.5 -25 q-9 -15 -28.5 -32t-47 -29.5t-61.5 -12.5q-58 0 -100 23.5t-64.5 72.5t-22.5 126zM297 646q0 11 2 20t7 17q15 0 42 5t53.5 13t38.5 16q9 -3 15.5 -12t6.5 -28v-139h-90v37q0 24 -4.5 39.5t-20.5 23.5t-50 8zM372 127v448h90v-448h-90zM379 49q0 20 3.5 35.5t10.5 51.5h69 q0 -23 4 -38.5t17.5 -22.5t40.5 -7q0 -10 -1 -22.5t-5 -23.5q-25 -1 -58 -9.5t-56 -21.5q-10 5 -17.5 14.5t-7.5 43.5z" />
<glyph unicode="e" horiz-adv-x="474" d="M40 229q0 64 25 118t71.5 87t110.5 33q65 0 104.5 -28t59 -75t23.5 -104q-4 -20 -15 -34h-51t-77 -0.5t-88 -2t-85 -3.5v51h212q0 66 -24 107t-68 41q-24 0 -47 -14.5t-38 -51t-15 -103.5q0 -49 12.5 -95.5t44 -77t89.5 -30.5q33 0 65 15t57 43q8 -4 15.5 -13.5 t8.5 -17.5q-34 -45 -78.5 -64t-99.5 -19q-71 0 -118 32t-70.5 86.5t-23.5 119.5z" />
<glyph unicode="f" horiz-adv-x="342" d="M36 403q0 13 3.5 24t10.5 21h81v-57q-25 7 -51 9.5t-44 2.5zM42 -3q0 14 1 24.5t4 18.5q27 2 42 9.5t21 26t6 51.5v100h90v-80q0 -43 9 -65.5t29 -31t51 -10.5q3 -8 4 -18.5t1 -24.5q-15 1 -35.5 1.5t-43.5 1t-47 0.5q-35 0 -73.5 -0.5t-58.5 -2.5zM116 222v266 q0 75 30.5 125.5t78.5 75.5t100 25q39 0 59 -7.5t36 -17.5q-2 -31 -3 -60.5t-1 -56.5q-13 -4 -28 -6t-29 -2q0 41 -18 68t-60 27q-27 0 -43.5 -16.5t-24 -47.5t-7.5 -76v-297h-90zM197 389v59h111q0 -10 -2 -22.5t-8 -22.5q-29 0 -54.5 -3.5t-46.5 -10.5z" />
<glyph unicode="g" horiz-adv-x="511" d="M41 -114q0 38 20.5 66t57.5 44l50 -4q-24 -18 -33 -38t-9 -47q0 -51 25.5 -77t86.5 -26q66 0 103.5 33t37.5 76q0 26 -12.5 41t-48 22t-104.5 7q-45 0 -73.5 4.5t-45 15t-23 26.5t-6.5 39q0 33 19.5 64.5t50.5 56.5l37 -26q-20 -17 -28.5 -32t-8.5 -26q0 -18 9.5 -27 t40.5 -12t95 -3q67 0 106.5 -11t57 -35t17.5 -65q0 -34 -18.5 -69.5t-51.5 -65t-78.5 -48t-99.5 -18.5q-61 0 -99.5 15.5t-56.5 45.5t-18 74zM57 301q0 46 20 83.5t60.5 60t99.5 22.5q50 0 84.5 -16.5t56.5 -42t32 -53t10 -48.5q0 -46 -20.5 -84.5t-61 -61t-99.5 -22.5 q-47 0 -89 18t-67.5 54t-25.5 90zM149 314q0 -62 27 -95.5t75 -33.5q33 0 54 27.5t21 79.5q0 53 -26 91.5t-73 38.5q-40 0 -59 -33.5t-19 -74.5zM282 458h182q4 -13 5.5 -29.5t1.5 -32.5q-16 4 -38.5 8t-44 7t-36.5 4z" />
<glyph unicode="h" horiz-adv-x="596" d="M35 646q0 11 2 20t7 17q15 0 42.5 5t53.5 13t38 16q9 -3 15.5 -12t6.5 -28v-139h-90v37q0 24 -4.5 39.5t-20.5 23.5t-50 8zM36 -3q0 14 1 24.5t4 18.5q39 0 54 18.5t15 68.5v198l90 98q0 -12 -1 -27t-6 -32q3 5 6 11.5t9 14.5q17 23 54.5 47.5t90.5 24.5q38 0 70.5 -15.5 t52.5 -51t20 -96.5v-172q0 -52 14.5 -69.5t44.5 -17.5q3 -9 4 -19t1 -24q-22 2 -50 2.5t-59 0.5q-20 0 -42 -0.5t-41.5 -1t-35.5 -1.5q0 14 1 24.5t4 18.5q36 0 52.5 18.5t16.5 68.5v152q0 71 -26 96.5t-67 25.5q-26 0 -52 -16.5t-43.5 -53t-17.5 -97.5v-107q0 -50 15 -68.5 t54 -18.5q3 -9 4 -19t1 -24q-14 1 -34 1.5t-42 1t-43 0.5q-20 0 -42 -0.5t-42 -1t-35 -1.5zM110 310v265h90v-152z" />
<glyph unicode="i" horiz-adv-x="301" d="M36 396q0 11 2 20t7 17q15 0 42.5 5t53.5 13t38 16q9 -3 15.5 -12t6.5 -28v-300q0 -50 13.5 -68.5t45.5 -18.5q3 -10 4 -23t1 -20q-17 1 -36 1.5t-38.5 1t-38.5 0.5t-39.5 -0.5t-39.5 -1t-36 -1.5q0 10 1 21.5t4 21.5q40 0 54.5 18.5t14.5 68.5v198q0 24 -4.5 39.5 t-20.5 23.5t-50 8zM89 638q0 27 18 44t41 17q27 0 43.5 -17t16.5 -44q0 -23 -17.5 -40.5t-42.5 -17.5t-42 17t-17 41z" />
<glyph unicode="j" horiz-adv-x="283" d="M13 -221q39 44 60 79.5t29.5 73.5t8.5 87v306q0 24 -4.5 39.5t-20.5 23.5t-50 8q0 11 2 20t7 17q15 0 42.5 5t53.5 13t38 16q9 -3 15.5 -12t6.5 -28v-394q0 -54 -14.5 -98.5t-38.5 -79.5t-53.5 -61t-59.5 -43q-7 4 -13.5 11t-8.5 17zM89 638q0 27 18 44t41 17 q27 0 43.5 -17t16.5 -44q0 -23 -17.5 -40.5t-42.5 -17.5t-42 17t-17 41z" />
<glyph unicode="k" horiz-adv-x="545" d="M35 646q0 11 2 20t7 17q15 0 42.5 5t53.5 13t38 16q9 -3 15.5 -12t6.5 -28v-550q0 -50 13.5 -68.5t45.5 -18.5q3 -10 4 -23t1 -20q-26 2 -55 2.5t-58 0.5q-19 0 -39.5 -0.5t-39.5 -1t-36 -1.5q0 10 1 21.5t4 21.5q40 0 54.5 18.5t14.5 68.5v448q0 24 -4.5 39.5 t-20.5 23.5t-50 8zM175 233l99 90q35 31 49.5 50.5t14.5 29.5q0 8 -7.5 12t-21.5 4q-3 10 -4.5 20t-1.5 21q22 -1 40.5 -1.5t34.5 -0.5h29q17 0 42 0.5t52 1.5q0 -10 -1.5 -21.5t-5.5 -20.5q-19 0 -37.5 -6t-39 -19t-45.5 -36l-110 -100l-2 32q35 -36 72 -77.5t89 -105.5 q20 -24 34.5 -37t30.5 -18.5t39 -7.5q0 -14 -1 -24.5t-4 -18.5q-24 0 -45 -1t-41 -2.5t-42 -5.5q-23 35 -60 82t-78 94t-78 82z" />
<glyph unicode="l" horiz-adv-x="299" d="M35 646q0 11 2 20t7 17q15 0 42.5 5t53.5 13t38 16q9 -3 15.5 -12t6.5 -28v-550q0 -50 13.5 -68.5t45.5 -18.5q3 -10 4 -23t1 -20q-17 1 -36 1.5t-38.5 1t-38.5 0.5t-39.5 -0.5t-39.5 -1t-36 -1.5q0 10 1 21.5t4 21.5q40 0 54.5 18.5t14.5 68.5v448q0 24 -4.5 39.5 t-20.5 23.5t-50 8z" />
<glyph unicode="m" horiz-adv-x="885" d="M36 396q0 11 2 20t7 17q17 1 42.5 6.5t49.5 13t37 14.5q9 -3 15.5 -12t6.5 -28q0 -16 -1.5 -37t-6.5 -62l-10 -1q14 38 20.5 51t9.5 17q16 23 53.5 47.5t89.5 24.5q42 0 77 -19t51 -65q4 -12 4 -33h-3q9 25 20 40q17 23 54 47.5t89 24.5q38 0 70 -15.5t51.5 -51 t19.5 -96.5v-172q0 -34 6.5 -52.5t20 -25.5t33.5 -9q3 -9 4 -19t1 -24q-22 2 -50.5 2.5t-58.5 0.5q-20 0 -41 -0.5t-41 -1t-37 -1.5q0 14 1 24.5t4 18.5q27 2 42 9.5t21 26t6 51.5v152q0 71 -25.5 96.5t-66.5 25.5q-25 0 -51 -16.5t-43 -53t-17 -97.5v-107q0 -52 16 -68.5 t54 -18.5q3 -9 4 -19t1 -24q-25 2 -57.5 2.5t-61.5 0.5t-60.5 -0.5t-58.5 -2.5q0 14 1 24.5t4 18.5q27 2 42 9.5t21 26t6 51.5v157q0 71 -25.5 96.5t-66.5 25.5q-25 0 -51 -16.5t-43 -53t-17 -97.5v-112q0 -50 15 -67.5t55 -19.5q3 -9 4 -19t1 -24q-17 1 -38 1.5l-42 1 t-39 0.5q-17 0 -39 -0.5t-43 -1t-37 -1.5q0 14 1 24.5t4 18.5q40 2 54.5 19.5t14.5 67.5v198q0 24 -5 39t-21 23t-49 9z" />
<glyph unicode="n" horiz-adv-x="597" d="M36 396q0 11 2 20t7 17q31 2 71 12t63 22q9 -3 15.5 -12.5t6.5 -31.5l-90 -209v111q0 24 -5 39t-21 23t-49 9zM37 -3q0 14 1 24.5t4 18.5q39 0 54 18.5t15 68.5v198l90 98q0 -12 -1 -27t-6 -32q3 5 6 11.5t9 14.5q17 23 54.5 47.5t90.5 24.5q38 0 70.5 -15.5t52.5 -51 t20 -96.5v-172q0 -52 14.5 -69.5t44.5 -17.5q3 -9 4 -19t1 -24q-22 2 -50 2.5t-59 0.5q-20 0 -42 -0.5t-41.5 -1t-35.5 -1.5q0 14 1 24.5t4 18.5q36 0 52.5 18.5t16.5 68.5v152q0 71 -26 96.5t-67 25.5q-26 0 -52 -16.5t-43.5 -53t-17.5 -97.5v-107q0 -50 15 -68.5t54 -18.5 q3 -9 4 -19t1 -24q-14 1 -34 1.5t-42 1t-43 0.5q-20 0 -42 -0.5t-42 -1t-35 -1.5z" />
<glyph unicode="o" horiz-adv-x="532" d="M40 229q0 68 29 122t80 85t117 31q71 0 121.5 -30t77.5 -83.5t27 -124.5q0 -68 -28.5 -122t-79 -85t-118.5 -31t-119 29.5t-79 83t-28 125.5zM141 250q0 -67 16.5 -114.5t46.5 -72t70 -24.5q60 0 89 49.5t29 128.5q0 62 -18.5 107.5t-49.5 70t-68 24.5q-58 0 -86.5 -47 t-28.5 -122z" />
<glyph unicode="p" horiz-adv-x="573" d="M36 396q0 11 2 20t7 17q31 2 71 12t63 22q9 -3 15.5 -12.5t6.5 -31.5q0 -23 -6.5 -43.5t-17.5 -54.5l24 -19v-401q0 -43 9 -65.5t29 -31t51 -10.5q3 -8 4 -18.5t1 -24.5q-15 1 -35.5 1.5t-43.5 1t-47 0.5q-35 0 -73.5 -0.5t-58.5 -2.5q0 14 1 24.5t4 18.5q27 2 42 9.5 t21 26t6 51.5v440q0 24 -5 39t-21 23t-49 9zM172 319q13 32 22.5 49t14.5 25q9 15 28.5 32.5t47.5 29.5t61 12q59 0 100.5 -23t64 -70t22.5 -120q0 -74 -31 -134t-87 -94.5t-131 -34.5q-28 0 -49.5 5t-47.5 13v77q20 -21 43.5 -35t58.5 -14q21 0 45.5 8.5t47.5 29.5t37.5 59 t14.5 98q0 53 -14.5 91.5t-40 59.5t-57.5 21q-29 0 -57 -18.5t-46 -60.5t-18 -112z" />
<glyph unicode="q" horiz-adv-x="546" d="M40 214q0 68 30.5 125.5t85.5 92.5t128 35q68 0 117.5 -18t80.5 -49l-110 -14q-11 12 -35 23.5t-49 11.5q-65 0 -107 -50t-42 -144q0 -62 18.5 -99t47 -52.5t56.5 -15.5q23 0 49 16t44 54t18 103l20 -96q-6 -19 -15.5 -40.5t-18.5 -33.5q-20 -26 -57 -45t-77 -19 q-48 0 -90 24t-68 72t-26 119zM288 -245q0 14 1 24.5t4 18.5q32 2 49 9.5t23.5 26t6.5 51.5v135q0 25 4 51t14 63l-18 3v263h110q-6 -10 -10.5 -24t-7 -34.5t-2.5 -50.5v-406q0 -33 6 -51.5t21.5 -26t41.5 -9.5q3 -9 4 -19t1 -24q-19 2 -55.5 2.5t-68.5 0.5 q-21 0 -43.5 -0.5t-43 -1t-37.5 -1.5z" />
<glyph unicode="r" horiz-adv-x="419" d="M36 396q0 11 2 20t7 17q31 2 71 12t63 22q9 -3 15.5 -12.5t6.5 -31.5l-90 -209v111q0 24 -5 39t-21 23t-49 9zM37 -3q0 14 1 24.5t4 18.5q27 2 42 9.5t21 26t6 51.5v100h90v-80q0 -43 9 -65.5t29 -31t51 -10.5q3 -8 4 -18.5t1 -24.5q-15 1 -35.5 1.5t-43.5 1t-47 0.5 q-35 0 -73.5 -0.5t-58.5 -2.5zM111 214v111l90 98q0 -34 -6 -61.5t-11 -54.5l17 -14v-79h-90zM179 301q11 28 17 46t13 30q22 35 52 58t69 23q38 0 69 -24q-2 -16 -4 -37t-2.5 -42t-0.5 -39q-9 -3 -24.5 -6t-32.5 -3q-2 48 -15.5 63t-33.5 15q-17 0 -37 -19.5t-34 -51.5 t-14 -71z" />
<glyph unicode="s" horiz-adv-x="428" d="M40 28q2 16 2.5 39t0.5 46t-2 39q8 6 22.5 8.5t29.5 2.5q8 -63 39 -94t83 -31q41 0 63.5 18t22.5 46q0 18 -8.5 31t-31.5 26t-68 31q-54 22 -86.5 41t-47 45t-14.5 66q0 32 16 55.5t41.5 39t54.5 23t54 7.5q45 0 79 -9t65 -26q-1 -24 -1 -51q0 -3 -1 -6q0 -24 4 -47 q-10 -6 -23 -9t-27 -3q-2 28 -16.5 53t-38.5 41t-57 16q-31 0 -49.5 -15t-18.5 -40q0 -17 7.5 -30t33 -27.5t78.5 -35.5q54 -20 85 -40t44 -45t13 -61q0 -42 -24 -74t-65.5 -49.5t-93.5 -17.5q-60 0 -95.5 9.5t-69.5 27.5z" />
<glyph unicode="t" horiz-adv-x="351" d="M20 404q0 13 2 22.5t7 21.5h63v132q20 5 39.5 16t34.5 24q10 -4 13 -12t3 -40v-120h130q0 -10 -2 -21.5t-7 -22.5q-36 -1 -66 -4.5t-55 -8.5v-250q0 -33 7 -54.5t20 -31.5t31 -10q21 0 36.5 6t29.5 18q13 -15 15 -33q-16 -19 -48.5 -32t-64.5 -13q-59 0 -87.5 30.5 t-28.5 98.5v271q-15 5 -31 8.5t-41 4.5z" />
<glyph unicode="u" horiz-adv-x="564" d="M16 396q0 11 1.5 19.5t5.5 17.5q31 2 67.5 12t59.5 22q9 -3 15.5 -12.5t6.5 -31.5v-227q0 -67 18.5 -103t64.5 -36q50 0 83.5 42t33.5 129v102q0 35 -12.5 52.5t-62.5 18.5q0 11 1 19.5t6 17.5q39 2 76.5 10.5t59.5 18.5q9 -3 15.5 -12.5t6.5 -31.5v-290l-78 -37 q-5 -13 -14 -25.5t-20 -23.5q-26 -26 -55 -38.5t-70 -12.5q-67 0 -105 39t-38 139v151q0 35 -10 52.5t-56 18.5zM379 49q0 11 1.5 31t8.5 56h73q0 -23 4 -38.5t17.5 -22.5t40.5 -7q0 -10 -1 -22.5t-5 -23.5q-25 -1 -58 -9.5t-56 -21.5q-10 5 -17.5 14.5t-7.5 43.5z" />
<glyph unicode="v" horiz-adv-x="528" d="M15 461q21 -1 47.5 -2t57.5 -1q21 0 43.5 0.5t43 1t36.5 1.5q0 -11 -2 -21.5t-5 -19.5q-50 -4 -59 -16q-3 -4 -3 -11q0 -14 13 -42q7 -15 20 -45.5t29 -69.5t32 -78.5t28 -71.5h-11q26 65 47 117t39 97q19 46 19 73q0 11 -4 17q-10 26 -48 29q-5 10 -8 21t-3 21 q20 -1 45 -2t48 -1t49 1t44 2q0 -13 -2 -23.5t-7 -19.5q-16 -3 -28 -14t-23.5 -33t-28.5 -62l-135 -309q-9 -4 -21.5 -6.5t-24.5 -2.5q-8 20 -24.5 58.5t-37 85.5t-41 92.5t-36 80t-21.5 47.5q-13 27 -22 39.5t-17.5 17.5t-22.5 6q-4 13 -5 21t-1 22z" />
<glyph unicode="w" horiz-adv-x="774" d="M15 460q20 -1 42.5 -1.5t55.5 -0.5t59 1t51 2q0 -10 -1 -23t-4 -21q-28 -3 -39.5 -10t-11 -19t7.5 -31q23 -58 48 -127t45 -128l-13 -1l138 357q8 2 19 3t21 1q33 -76 72.5 -172t76.5 -191h-14l63 189q15 45 15 71q0 30 -16 43q-14 12 -39 15q-4 11 -6.5 22.5t-2.5 21.5 q19 -1 43 -2t46 -1q27 0 49 1t39 2q0 -13 -1.5 -23t-6.5 -21q-15 -4 -25.5 -14.5t-21 -36.5t-27.5 -75l-101 -291q-6 -3 -13 -5t-15 -3t-18 -1q-23 60 -49.5 123.5t-52.5 125.5t-51 117l31 17l-149 -374q-5 -3 -11 -5t-14 -3t-19 -1q-17 48 -33.5 94.5t-34 92t-35 90.5 t-35.5 90q-11 28 -22.5 40t-33.5 19q-4 10 -5 22t-1 21z" />
<glyph unicode="x" horiz-adv-x="521" d="M30 -2q0 11 1 22.5t5 19.5q18 1 34 8.5t34.5 26.5t43.5 54l73 102l31 -33l-49 -72q-26 -39 -26 -59q1 -4 1 -7q6 -20 34 -20q3 -7 4.5 -19t1.5 -23q-28 2 -59 2h-46h-31.5t-51.5 -2zM37 460q22 -1 49 -1.5t56 -0.5h59.5t55.5 2q0 -10 -1.5 -21t-3.5 -19q-34 -1 -40 -16 q-1 -2 -1 -5q0 -16 26 -53l22.5 -30t29.5 -40l12 -16q26 -35 53.5 -72t46.5 -66q22 -31 36 -49t25.5 -25t24.5 -8q4 -10 4.5 -19.5t0.5 -22.5q-31 2 -55 2h-50h-27h-28.5t-29.5 -0.5t-30 -1.5q0 13 0.5 23t3.5 19q35 0 42 14q2 3 2 8q0 14 -18 40q-13 21 -29 44.5t-33 47.5 l-15 22q-22 32 -44 62t-39 53q-28 38 -44 56.5t-27 25t-27 7.5q-4 8 -5.5 18.5t-1.5 21.5zM267 261l55 85q24 37 24 54q0 19 -35 20q-4 9 -5 19.5t-1 20.5q19 -1 39 -1.5t50 -0.5h49t35 2q0 -10 -2 -21t-4 -19q-15 -1 -27 -6t-25.5 -19.5t-34.5 -43.5l-88 -124z" />
<glyph unicode="y" horiz-adv-x="541" d="M15 460q29 -1 58 -1.5t55 -0.5t64 0.5t69 1.5q0 -13 -1.5 -23.5t-5.5 -19.5q-54 -9 -62 -31q-2 -6 -2 -13q0 -23 21 -66q14 -29 32 -69.5t35 -81t29 -71.5l-45 -106q-24 53 -50.5 111.5t-50.5 112.5t-42 91q-23 50 -38.5 75t-29 35t-30.5 13q-3 9 -4.5 20t-1.5 23z M40 -188q1 22 4 35q17 -3 33 -4.5t31 -1.5q29 0 55.5 14t45.5 45q14 21 42 82.5t59 141.5l69 174q17 42 17 67q0 12 -4 21q-14 23 -58 31q-4 11 -5.5 21.5t-1.5 21.5q23 -1 47 -1.5t52 -0.5t53 0.5t47 1.5q0 -10 -0.5 -21t-5.5 -22q-18 -4 -30.5 -14t-23.5 -31t-27 -59 l-147 -350q-28 -68 -50.5 -110t-42 -64t-39 -30t-42.5 -8q-30 0 -47.5 8t-27.5 15q-3 12 -3 29v9z" />
<glyph unicode="z" horiz-adv-x="501" d="M51 38q21 29 50.5 70.5t62.5 88t64.5 91t56.5 81t38 57.5l20 -12h-120q-36 0 -57 -8t-32.5 -31t-21.5 -67q-12 0 -26.5 2t-25.5 6q3 33 5 70t2 75q21 -1 52 -1.5t66 -1t65 -0.5t63.5 0.5t64 1t49.5 1.5q7 -8 10 -20t3 -23q-26 -37 -63 -89t-77 -107.5t-76.5 -105.5 t-62.5 -83l-8 12h144q36 0 56 8t29.5 31.5t12.5 71.5q12 0 25 -1t28 -5q0 -16 1 -40.5t2.5 -49.5t4.5 -43q-9 -19 -32 -19q-25 1 -49.5 1t-55 0.5t-74.5 0.5q-66 0 -108.5 -0.5t-69.5 -1.5q-7 7 -11.5 17.5t-4.5 22.5z" />
<glyph unicode="{" horiz-adv-x="327" d="M35 228q0 9 0.5 16t4.5 16q58 20 76.5 55t18.5 79q0 36 -6 76t-6 79q0 29 6.5 56.5t22.5 52.5t46.5 46t78.5 37q5 -7 7 -13.5t2 -13.5q-51 -17 -68.5 -49.5t-17.5 -73.5q0 -45 11 -95t12 -97q1 -34 -9 -64.5t-37.5 -53t-80.5 -35.5q52 -13 79.5 -37t38 -55.5t10.5 -67.5 q0 -49 -10 -100.5t-10 -98.5q0 -43 18 -77.5t70 -51.5q0 -10 -0.5 -16.5t-5.5 -12.5q-51 16 -83 38.5t-49 49.5t-23.5 57.5t-6.5 62.5q0 38 4.5 75.5t4.5 71.5q0 49 -18.5 87t-79.5 57z" />
<glyph unicode="|" horiz-adv-x="170" d="M60 -241v942q11 7 23 9t27 2v-134t-0.5 -165t-0.5 -179q0 -89 0.5 -173t0.5 -158v-133q-7 -4 -23 -7.5t-27 -3.5z" />
<glyph unicode="}" horiz-adv-x="327" d="M35 -242q53 17 70.5 51.5t17.5 77.5q0 47 -10 98.5t-10 100.5q0 36 10.5 67.5t38.5 55.5t79 37q-52 13 -80 35.5t-37.5 53t-9.5 64.5q1 47 12 97t11 95q0 41 -17.5 73.5t-68.5 49.5q0 7 2.5 13.5t6.5 13.5q48 -16 78.5 -37t46.5 -46t22.5 -52.5t6.5 -56.5q0 -39 -6 -79 t-6 -76q0 -44 18.5 -79t76.5 -55q4 -9 4.5 -16t0.5 -16q-61 -19 -79.5 -57t-18.5 -87q0 -34 4.5 -71.5t4.5 -75.5q0 -32 -6.5 -62.5t-23.5 -57.5t-49 -49.5t-83 -38.5q-4 6 -5 12.5t-1 16.5z" />
<glyph unicode="~" d="M46 221q38 55 72 75.5t66 20.5q26 0 50.5 -8.5t48.5 -20t48 -20t49 -8.5q23 0 45.5 10t47.5 35q10 -1 17 -3.5t14 -9.5q-25 -36 -48.5 -56.5t-44.5 -29t-40 -8.5q-25 0 -48.5 9.5t-46.5 21.5t-46.5 21.5t-49.5 9.5q-25 0 -52.5 -14t-59.5 -51q-10 5 -15 10.5t-7 15.5z " />
<glyph unicode="&#xa1;" horiz-adv-x="411" d="M145 409q0 30 18 44t41 14q27 0 42 -15t15 -38t-17 -40t-44 -17q-26 0 -40.5 17.5t-14.5 34.5zM147 -224q6 61 13 138t12.5 158t8.5 156q9 4 20.5 5t24.5 1q5 -96 11 -173t13 -145.5t16 -137.5q-14 -3 -33.5 -8.5t-38 -12t-29.5 -12.5q-11 4 -15.5 11t-2.5 20z" />
<glyph unicode="&#xa2;" horiz-adv-x="447" d="M40 227q0 60 24 115t70.5 90t113.5 35q46 0 84.5 -11t66.5 -34q-4 -29 -5.5 -57t-1.5 -57q-8 -4 -21.5 -6t-24.5 -2q-6 58 -34 89t-72 31q-49 0 -78 -46t-29 -132q0 -50 16.5 -94.5t48.5 -72t78 -27.5q32 0 60.5 15t50.5 43q8 -4 15 -11.5t10 -16.5q-27 -43 -67 -65 t-97 -22q-51 0 -98.5 26.5t-78.5 79t-31 130.5zM227 -130v742q15 0 27.5 -2t22.5 -9l-2 -162v-424l2 -156q-11 0 -27 3.5t-23 7.5z" />
<glyph unicode="&#xa3;" horiz-adv-x="557" d="M56 22q57 54 88.5 102t31.5 114q0 36 -10 64.5t-23 55.5t-23 59.5t-10 76.5q0 49 21.5 92.5t63 71t101.5 27.5q36 0 62.5 -3.5t48 -11.5t43.5 -20q-3 -31 -2 -62.5t3 -69.5q-14 -7 -27.5 -8.5t-26.5 -0.5q-4 69 -32 99t-81 30q-37 0 -63.5 -30t-26.5 -78 q0 -36 10.5 -62.5t23.5 -50t23.5 -49t10.5 -60.5q0 -29 -5.5 -57t-18 -56t-31.5 -57t-46 -60l-5 4q28 22 49.5 33.5t41 15.5t40.5 4q36 0 63.5 -13t49.5 -26t40 -13q8 0 18 4t20 13q11 -1 20 -6t18 -14q-25 -19 -51 -44.5t-39 -44.5q-16 0 -29.5 2.5t-26.5 8.5 q-22 10 -38.5 22.5t-39 22.5t-62.5 10q-39 0 -72.5 -15.5t-67.5 -49.5q-11 5 -19.5 12.5t-14.5 17.5zM64 288q0 16 2.5 25t8.5 21h303q0 -15 -2.5 -24.5t-7.5 -20.5q-33 1 -63 1h-72q-41 0 -71.5 -0.5t-54 -0.5t-43.5 -1z" />
<glyph unicode="&#xa4;" horiz-adv-x="527" d="M60 416q7 7 16.5 12.5t22.5 6.5l53 -52l-29 -30zM66 76l66 69l33 -27l-59 -60q-15 1 -23 4.5t-17 13.5zM80 257q0 53 26 92t67.5 60.5t89.5 21.5q49 0 89 -22.5t64.5 -61.5t24.5 -90q0 -47 -17 -81.5t-44 -56.5t-58 -33t-59 -11q-54 0 -95.5 25.5t-64.5 67.5t-23 89z M136 264q0 -35 17.5 -68.5t48 -55.5t67.5 -22q53 0 85 36t32 95q0 35 -17 67.5t-47 53.5t-68 21q-52 0 -85 -35t-33 -92zM361 122l31 28l75 -73q-6 -7 -15.5 -13t-24.5 -7zM368 386l52 53q13 -3 21.5 -7.5t15.5 -13.5l-60 -60z" />
<glyph unicode="&#xa5;" horiz-adv-x="630" d="M25 678q14 0 31 -0.5t35.5 -1t37.5 -0.5h44.5t50 0.5t39.5 1.5q0 -11 -1 -19.5t-4 -19.5q-39 -4 -44.5 -21.5t16.5 -60.5q27 -52 58.5 -117t62.5 -135h-8q32 71 60.5 131t51.5 106q27 53 20 71t-47 24q-3 11 -5 20.5t-2 20.5q18 -1 47 -1.5t51 -0.5q23 0 46 0.5t40 1.5 q0 -10 -1 -19t-3 -20q-27 -7 -51 -32t-50 -76l-143 -287h-78l-174 334q-16 31 -31 44.5t-43 14.5q-4 11 -5 21t-1 20zM104 206q0 11 3 24t8 23h170v-47h-181zM113 331q0 13 3 25t7 22h134l20 -47h-164zM185 -2q0 11 1.5 22t4.5 20q36 3 53 10.5t22 30t5 69.5v114h94v-101 q0 -53 5 -77.5t21.5 -32.5t50.5 -13q3 -9 4.5 -20t1.5 -23l-66 2t-61 1q-22 0 -48.5 -0.5t-50 -0.5t-37.5 -1zM352 206v47h180q0 -13 -3 -25t-9 -22h-168zM365 331l20 47h149q0 -15 -3 -25.5t-8 -21.5h-158z" />
<glyph unicode="&#xa6;" horiz-adv-x="170" d="M60 162q11 7 23 9t27 2q-1 -50 -1.5 -101t-0.5 -101t0.5 -100.5t1.5 -100.5q-7 -4 -23 -7.5t-27 -3.5v403zM60 329v372q11 7 23 9t27 2q-1 -46 -1.5 -92t-0.5 -93q0 -46 0.5 -93t1.5 -94q-7 -4 -23 -7.5t-27 -3.5z" />
<glyph unicode="&#xa7;" horiz-adv-x="528" d="M61 241q0 -50 15 -87.5t49 -68.5t92 -61q58 -29 85.5 -50t36.5 -41t9 -48q0 -37 -23 -59t-64 -22q-25 0 -46.5 11t-36 42.5t-20.5 92.5q-12 0 -26 -1.5t-25 -4.5q3 -33 3 -66.5t-2 -68.5q21 -18 53 -34.5t94 -16.5q58 0 93 22t51.5 58t16.5 78q0 41 -13.5 74.5t-48 63.5 t-97.5 60q-40 20 -65.5 38t-39.5 36.5t-19.5 37.5t-5.5 40q0 30 12 53.5t36 39t60 20.5l-49 34q-30 -9 -53 -25.5t-39 -39.5t-24.5 -50t-8.5 -57zM101 561q0 -34 10 -68t41 -65t92 -59q49 -22 79.5 -41.5t46.5 -38t22 -37t6 -38.5q0 -25 -12 -49.5t-41 -41.5t-81 -21l51 -40 q36 9 64 26.5t47.5 42t29.5 54t10 61.5q0 54 -17.5 90.5t-57.5 65.5t-108 59q-51 23 -75.5 42t-32 38.5t-7.5 43.5q0 31 23.5 57t63.5 26q30 0 51 -23.5t34 -97.5q15 0 26.5 2t24.5 6q-3 29 -3 60.5t2 56.5q-20 16 -51.5 29t-81.5 13q-47 0 -82.5 -22t-54.5 -56.5t-19 -74.5 z" />
<glyph unicode="&#xa8;" horiz-adv-x="300" d="M-4 583q0 22 13 39.5t42 17.5q30 0 43.5 -16t13.5 -39t-16 -38t-39 -15q-25 0 -41 14.5t-16 36.5zM190 589q0 24 15.5 37.5t40.5 13.5t41 -14t16 -37q0 -21 -12 -39t-42 -18q-29 0 -44 16t-15 41z" />
<glyph unicode="&#xa9;" horiz-adv-x="802" d="M60 230q0 72 26 134t72.5 108.5t108.5 72.5t134 26q71 0 133 -26t108.5 -72.5t73 -108.5t26.5 -134q0 -71 -26.5 -133t-73 -108.5t-108.5 -73t-133 -26.5q-72 0 -134 26t-108.5 72.5t-72.5 108.5t-26 134zM103 230q0 -84 39.5 -151.5t107 -106.5t151.5 -39q63 0 117 22.5 t95 63t63.5 94.5t22.5 117t-22.5 117t-63.5 95t-95 63.5t-117 22.5t-117 -22.5t-94.5 -63.5t-63.5 -95t-23 -117zM197 228q0 68 27 118.5t75.5 78.5t110.5 28q47 0 78 -10.5t66 -32.5q-4 -27 -5.5 -53.5t-1.5 -53.5q-7 -4 -20 -5.5t-23 -1.5q-2 27 -12.5 53t-33.5 42.5 t-66 16.5q-38 0 -60.5 -23t-32.5 -61.5t-10 -84.5t13 -87.5t42 -68t75 -26.5q29 0 60.5 10.5t59.5 40.5q6 -5 10 -10.5t7 -13.5q-26 -38 -65.5 -58.5t-97.5 -20.5q-48 0 -93 25t-74 74.5t-29 123.5z" />
<glyph unicode="&#xaa;" horiz-adv-x="435" d="M50 444q0 42 27.5 67t74.5 40t103 23q0 41 -3.5 56t-13.5 26q-17 22 -46 22q-21 0 -33.5 -13.5t-18.5 -33.5t-8 -40q-13 0 -28.5 1.5t-25.5 5.5q2 20 1 42.5t-5 39.5q31 17 67 27t75 10q36 0 58.5 -8t37.5 -24q18 -19 25.5 -44.5t7.5 -79.5v-80q0 -31 7.5 -43t37.5 -13 q1 -10 0 -21t-6 -20q-22 -1 -49.5 -7.5t-49.5 -17.5q-10 3 -17 11.5t-7 25.5q0 11 1.5 19.5t2.5 15.5q-4 -11 -11 -22.5t-19 -22.5q-13 -11 -33 -18.5t-47 -7.5q-105 0 -105 84zM143 461q0 -25 12 -36t28 -11q24 0 48 23.5t24 76.5v23q-28 -4 -53.5 -11t-42 -22t-16.5 -43z " />
<glyph unicode="&#xab;" horiz-adv-x="510" d="M60 240q0 9 1.5 17t4.5 17q42 37 77.5 71.5t71.5 71.5q12 -1 20 -5t15 -11q-17 -21 -37 -46.5t-37.5 -49.5t-29.5 -41q22 -39 47 -76t50 -71q-1 -10 -6 -19t-14 -15q-44 45 -83.5 82.5t-79.5 74.5zM239 240q0 11 2 19.5t4 13.5q35 38 64 71t59 69q10 -1 18.5 -4.5 t15.5 -10.5q-23 -33 -44.5 -66t-41.5 -65q19 -37 40.5 -76.5t41.5 -74.5q-3 -10 -8.5 -16.5t-14.5 -11.5q-40 47 -70 81t-66 71z" />
<glyph unicode="&#xac;" d="M53 297q0 11 3 27.5t7 23.5h434l-10 -50q-110 0 -214 0.5t-220 -1.5zM446 102v236l51 10v-232q-11 -7 -24 -10.5t-27 -3.5z" />
<glyph unicode="&#xad;" horiz-adv-x="419" d="M60 225q0 17 4.5 36.5t11.5 32.5h283q0 -16 -3 -33.5t-10 -31.5q-27 0 -65 -0.5t-79 -1t-78 -1t-64 -1.5z" />
<glyph unicode="&#xae;" horiz-adv-x="495" d="M60 585q0 53 25 95.5t67.5 67.5t95.5 25t95.5 -25t67 -67.5t24.5 -95.5t-25 -95.5t-67 -67t-95 -24.5q-52 0 -95 24.5t-68 67t-25 95.5zM96 585q0 -42 20 -76.5t54.5 -54.5t77.5 -20q44 0 78 20t53.5 54.5t19.5 76.5q0 43 -20 77.5t-54 54.5t-77 20t-77.5 -20 t-54.5 -54.5t-20 -77.5zM186 485v197q18 5 36.5 7t30.5 2q38 0 54.5 -14.5t16.5 -43.5q0 -24 -14 -47t-54 -23l20 6q17 -17 31.5 -37t24.5 -43q-16 -8 -38 -5q-9 20 -20.5 39.5t-26.5 35.5l-23 1v-75q-19 -4 -38 0zM224 585q5 -1 10 -1h9q20 0 31.5 9t11.5 31q0 24 -11.5 33 t-26.5 9q-6 0 -12 -1t-12 -3v-77z" />
<glyph unicode="&#xaf;" horiz-adv-x="300" d="M-32 585q0 6 2.5 21.5t6.5 24.5h355q0 -10 -2 -21t-7 -22h-68t-126.5 -0.5t-160.5 -2.5z" />
<glyph unicode="&#xb0;" horiz-adv-x="384" d="M60 578q0 35 16.5 62.5t46 43.5t67.5 16q65 0 99.5 -34.5t34.5 -86.5t-36.5 -88.5t-97.5 -36.5t-95.5 35t-34.5 89zM130 597q0 -46 22.5 -74.5t51.5 -28.5q21 0 35.5 18.5t14.5 55.5q0 44 -19 69t-51 25q-23 0 -38.5 -19.5t-15.5 -45.5z" />
<glyph unicode="&#xb1;" d="M53 41q0 11 3 26.5t7 22.5h434q0 -15 -1.5 -26t-8.5 -22q-21 0 -43.5 0.5t-47.5 0.5h-52.5h-58.5h-115t-117 -2zM91 274q0 11 3 26.5t7 22.5h358q0 -15 -1.5 -26t-7.5 -22q-32 1 -55.5 0.5t-49.5 -0.5h-68h-76.5t-109.5 -1zM250 123q0 30 0.5 52.5t1 42t0.5 38.5v42v47 v51.5t-1 76.5q11 7 22.5 8.5t26.5 1.5v-350q-4 -3 -13 -5.5t-19 -3.5t-18 -1z" />
<glyph unicode="&#xb2;" horiz-adv-x="370" d="M40 441q32 31 61 56.5t47 41.5q35 32 51 59t16 64q0 28 -15 45t-36 17q-25 0 -35.5 -22t-17.5 -77q-11 0 -25 1t-24 5q2 24 2 52.5t-3 50.5q31 18 59 25.5t69 7.5q24 0 49 -8.5t41.5 -28.5t16.5 -54q0 -39 -15.5 -65t-47.5 -55l-40.5 -36t-47.5 -42h80q24 0 39 12.5 t16 43.5q11 0 20.5 -1t16.5 -3q0 -26 1.5 -50.5t6.5 -51.5q-4 -8 -11.5 -14t-20.5 -6q-22 0 -57 1t-71 1q-37 0 -68 -1t-48 -1q-5 8 -7 16.5t-2 16.5z" />
<glyph unicode="&#xb3;" horiz-adv-x="369" d="M35 320q5 10 10.5 16t12.5 11q7 -6 25.5 -12.5t47.5 -6.5q24 0 49 12.5t42 37.5t17 60q0 38 -22.5 64.5t-66.5 26.5q-7 0 -12 -0.5t-10 -2.5q-6 5 -10.5 10.5t-6.5 15.5q42 53 68.5 86t46.5 60h-62q-33 0 -45.5 -11.5t-27.5 -48.5q-9 0 -19.5 2.5t-17.5 6.5q4 31 5.5 59 t1.5 53q17 -1 47.5 -1h75.5h72.5t41.5 1q5 -9 6.5 -16.5t1.5 -18.5q-25 -27 -56 -65t-63 -80q35 3 66 -11.5t51 -45t20 -74.5q0 -43 -22.5 -79.5t-64.5 -58.5t-100 -22q-45 0 -69.5 12.5t-32.5 19.5z" />
<glyph unicode="&#xb4;" horiz-adv-x="300" d="M66 537q24 50 39.5 92t25.5 80q22 8 40.5 10.5t33.5 1.5q9 -1 16.5 -3t12.5 -4q-33 -38 -68 -87.5t-64 -95.5q-9 -1 -18.5 0.5t-17.5 5.5z" />
<glyph unicode="&#xb5;" horiz-adv-x="589" d="M36 396q0 11 1.5 19.5t5.5 17.5q31 2 67.5 12t59.5 22q9 -3 15.5 -12.5t6.5 -31.5v-227q0 -50 9 -81t28.5 -44.5t52.5 -13.5q27 0 52.5 18t41.5 56t16 97v102q0 35 -12.5 52.5t-62.5 18.5q0 11 1 19.5t6 17.5q39 2 76.5 10.5t59.5 18.5q9 -3 15.5 -12.5t6.5 -31.5v-290 l-79 -37q-10 -26 -33 -49q-26 -26 -55.5 -38.5t-65.5 -12.5q-70 0 -108.5 38.5t-38.5 139.5v151q0 35 -10 52.5t-56 18.5zM93 -220q2 15 4 32t3.5 41.5t1.5 61.5v265l68 -73v-147q0 -44 3.5 -74t10.5 -53q-24 -19 -37.5 -34t-33.5 -41q-7 3 -12.5 9.5t-7.5 12.5zM398 40 q0 13 1 26t3.5 29.5t6.5 40.5h73q0 -23 4 -38.5t18.5 -23.5t44.5 -9q0 -10 -1 -21t-5 -22q-15 0 -38.5 -4t-46.5 -11t-35 -16q-9 3 -17 13.5t-8 35.5z" />
<glyph unicode="&#xb6;" horiz-adv-x="540" d="M36 493q0 53 25.5 94.5t81 66t144.5 24.5q47 0 81.5 -1t70.5 -1q17 0 39 0.5t43 1.5q0 -11 -1 -21t-5 -21q-29 -1 -43.5 -10t-19 -27.5t-4.5 -48.5v-789q-12 -6 -24 -8t-26 -2v897l14 -14q-31 5 -56.5 6t-54.5 1q-64 0 -102 -13t-55 -44.5t-17 -87.5q0 -49 20 -80t52 -46 t69 -15h33v-34q-13 -3 -23.5 -4t-23.5 -1q-67 0 -116 16.5t-75.5 55t-26.5 105.5zM287 -249v901l50 4v-895q-13 -6 -24.5 -8t-25.5 -2z" />
<glyph unicode="&#xb7;" horiz-adv-x="236" d="M60 257q0 23 17 40t44 17q26 0 40.5 -17.5t14.5 -34.5q0 -30 -18 -44t-41 -14q-27 0 -42 15t-15 38z" />
<glyph unicode="&#xb8;" horiz-adv-x="300" d="M80 -63l50 79h50l-48 -66q40 -7 63.5 -31t23.5 -60q0 -33 -21 -55.5t-51 -34t-56 -11.5q-4 7 -5.5 16t-1.5 16q30 0 54.5 14.5t24.5 40.5q0 25 -18.5 39.5t-46.5 14.5q-7 6 -12.5 15.5t-5.5 22.5z" />
<glyph unicode="&#xb9;" horiz-adv-x="308" d="M54 407q0 11 1 21t3 20q30 0 42.5 14.5t12.5 46.5v150q0 30 -12.5 45t-42.5 15q-2 10 -3 20.5t-1 21.5q11 -1 29.5 -1.5t38.5 -1t33 -0.5t31 0.5t36.5 1t31.5 1.5q0 -11 -1 -21.5t-3 -20.5q-30 0 -42.5 -15t-12.5 -45v-150q0 -32 12.5 -46.5t42.5 -14.5q4 -19 4 -41 q-15 1 -32.5 1.5t-34.5 1t-32 0.5t-32.5 -0.5l-35 -1t-33.5 -1.5z" />
<glyph unicode="&#xba;" horiz-adv-x="418" d="M40 535q0 55 22.5 95.5t61 63.5t86.5 23q83 0 126 -49.5t43 -128.5q0 -81 -46.5 -131.5t-124.5 -50.5q-79 0 -123.5 48.5t-44.5 129.5zM132 554q0 -49 10 -83.5t29.5 -53.5t45.5 -19q35 0 53.5 35.5t18.5 91.5q0 72 -25.5 112t-61.5 40q-35 0 -52.5 -34.5t-17.5 -88.5z " />
<glyph unicode="&#xbb;" horiz-adv-x="518" d="M108 400q8 7 18.5 10.5t20.5 3.5q20 -22 40.5 -44t42 -43t43.5 -43q3 -7 4 -14.5t1 -16.5q-34 -40 -66.5 -80.5t-64.5 -81.5q-9 5 -15.5 13t-11.5 15q20 31 39.5 63.5t38.5 66.5q-16 30 -42 73.5t-48 77.5zM265 404q8 7 18 10.5t19 3.5q24 -23 48.5 -45t50 -44t51.5 -44 q4 -7 5 -15t1 -17q-40 -40 -79 -82t-77 -84q-8 5 -14 13t-9 16q25 32 48.5 64.5t45.5 68.5q-13 21 -31.5 48t-38.5 55.5t-38 51.5z" />
<glyph unicode="&#xbc;" horiz-adv-x="796" d="M40 654q0 11 1 21.5t4 20.5q50 4 90 12t75 22q14 -4 18.5 -12.5t4.5 -27.5v-292q0 -33 6 -49t22.5 -21.5t46.5 -7.5q3 -9 4 -19.5t1 -21.5q-20 1 -42 1t-44.5 0.5t-43.5 0.5q-31 0 -66.5 -0.5t-63.5 -1.5q0 11 1 21.5t3 19.5q31 2 49.5 7.5t27 21.5t8.5 49v191 q0 28 -6 41.5t-27.5 18.5t-68.5 5zM153 18l512 696q11 -3 22 -10.5t18 -15.5l-512 -696q-14 5 -24.5 12t-15.5 14zM410 160q34 42 72 89.5t76 98t72 101.5q9 1 17.5 0.5t17.5 -2t17 -4.5v-332q0 -31 5 -45t16 -18.5t29 -5.5q2 -6 3.5 -20t1.5 -25q-11 1 -29.5 1.5t-37.5 1 t-35 0.5t-36.5 -0.5t-39 -1t-28.5 -1.5q0 11 1 26t3 19q35 2 50 14t15 55v264h27l-149 -204l-9 20h260q12 0 19.5 -2t12.5 -8q-7 -13 -11.5 -27.5t-6.5 -34.5q-87 0 -146 -1t-99 -2.5t-70 -4.5q-18 20 -18 49z" />
<glyph unicode="&#xbd;" horiz-adv-x="927" d="M40 654q0 11 1 21.5t4 20.5q50 4 90 12t75 22q14 -4 18.5 -12.5t4.5 -27.5v-292q0 -33 6 -49t22.5 -21.5t46.5 -7.5q3 -9 4 -19.5t1 -21.5q-20 1 -42 1t-44.5 0.5t-43.5 0.5q-31 0 -66.5 -0.5t-63.5 -1.5q0 11 1 21.5t3 19.5q31 2 49.5 7.5t27 21.5t8.5 49v191 q0 28 -6 41.5t-27.5 18.5t-68.5 5zM153 18l512 696q11 -3 22 -10.5t18 -15.5l-512 -696q-14 5 -24.5 12t-15.5 14zM565 38q37 45 62 74t46 53t46 52q26 29 38 54.5t12 54.5q0 35 -16.5 53t-48.5 18q-22 0 -35.5 -10t-21.5 -32.5t-14 -60.5q-15 0 -28 1.5t-25 5.5 q4 28 3.5 57t-4.5 60q34 17 68 24t73 7q51 0 83.5 -11.5t48.5 -34t16 -57.5q0 -39 -21.5 -71.5t-66.5 -76.5q-29 -28 -49 -47.5t-37.5 -39t-41.5 -47.5l3 23h109q27 0 41.5 4.5t22 19t10.5 42.5q12 1 26 -0.5t25 -6.5q-3 -45 -1.5 -73.5t7.5 -52.5q-4 -11 -14.5 -16.5 t-21.5 -5.5q-4 0 -19.5 0.5t-41 1t-59.5 0.5q-35 0 -69.5 -0.5t-91.5 -1.5q-13 13 -13 40z" />
<glyph unicode="&#xbe;" horiz-adv-x="808" d="M30 306q1 10 5 20t11 17q13 -9 35 -15.5t50 -6.5q50 0 82.5 22.5t32.5 62.5q0 36 -26 55t-62 19q-14 0 -26 -4q-6 7 -11 18t-5 20q35 38 69.5 77t56.5 69l24 -16h-111q-32 0 -45.5 -9t-26.5 -43q-11 0 -23 2.5t-20 8.5q6 29 7.5 60.5t0.5 63.5q21 -1 58.5 -2t75.5 -1 q53 0 86.5 1t50.5 2q6 -8 9.5 -19t2.5 -22q-30 -34 -68.5 -79t-70.5 -82l-15 16q42 5 80.5 -5.5t63 -38t24.5 -74.5q0 -67 -53 -108t-144 -41q-49 0 -77 10.5t-41 21.5zM165 18l512 696q11 -3 22 -10.5t18 -15.5l-512 -696q-14 5 -24.5 12t-15.5 14zM422 160q34 42 72 89.5 t76 98t72 101.5q9 1 17.5 0.5t17.5 -2t17 -4.5v-332q0 -31 5 -45t16 -18.5t29 -5.5q2 -6 3.5 -20t1.5 -25q-11 1 -29.5 1.5t-37.5 1t-35 0.5t-36.5 -0.5t-39 -1t-28.5 -1.5q0 11 1 26t3 19q35 2 50 14t15 55v264h27l-149 -204l-9 20h260q12 0 19.5 -2t12.5 -8 q-7 -13 -11.5 -27.5t-6.5 -34.5q-87 0 -146 -1t-99 -2.5t-70 -4.5q-18 20 -18 49z" />
<glyph unicode="&#xbf;" horiz-adv-x="537" d="M102 -128q0 39 14.5 70t36 58t43.5 54.5t36.5 60t14.5 74.5q0 12 -3.5 33t-7.5 35q9 5 17.5 6.5t18.5 1.5q16 -11 31 -45t15 -77q0 -40 -13 -69t-32 -52t-37.5 -44t-31.5 -44t-13 -53q0 -43 24.5 -69.5t56.5 -26.5q25 0 42.5 13t28.5 41.5t17 74.5q14 0 30.5 -2.5 t26.5 -7.5q-3 -35 -3.5 -60.5t3.5 -56.5q-25 -16 -61.5 -29.5t-92.5 -13.5q-71 0 -116 33t-45 95zM194 398q0 36 21.5 53t49.5 17q32 0 50 -18t18 -46t-20.5 -48t-52.5 -20q-31 0 -48.5 20.5t-17.5 41.5z" />
<glyph unicode="&#xc0;" horiz-adv-x="704" d="M25 -3q0 10 1.5 21.5t5.5 20.5q18 4 30 14t23.5 32.5t26.5 61.5l207 531q10 2 18.5 3t20.5 1l238 -546q17 -37 28 -57t22.5 -28t26.5 -11q4 -13 5 -22t1 -21q-10 1 -31 1.5t-44 1t-39 0.5q-12 0 -28 -0.5t-33 -1t-30.5 -1t-21.5 -0.5q0 12 1.5 23t5.5 20q41 5 48.5 18.5 t-12.5 59.5l-139 325q-13 31 -23 55t-24 61h5q-12 -38 -21.5 -64.5t-18.5 -50.5l-114 -297q-22 -59 -13.5 -81.5t49.5 -25.5q4 -9 5.5 -20t1.5 -23q-11 1 -27 1.5t-33.5 1t-34.5 0.5q-25 0 -47 -1t-36 -2zM176 216l16 49h257l9 -45q-67 0 -143.5 -1t-138.5 -3zM221 860 q17 9 41.5 11.5t48.5 0.5q13 -31 27.5 -65.5t33.5 -69.5q-9 -4 -18 -4.5t-22 -0.5q-31 40 -57.5 70.5t-53.5 57.5z" />
<glyph unicode="&#xc1;" horiz-adv-x="704" d="M25 -3q0 10 1.5 21.5t5.5 20.5q18 4 30 14t23.5 32.5t26.5 61.5l207 531q10 2 18.5 3t20.5 1l238 -546q17 -37 28 -57t22.5 -28t26.5 -11q4 -13 5 -22t1 -21q-10 1 -31 1.5t-44 1t-39 0.5q-12 0 -28 -0.5t-33 -1t-30.5 -1t-21.5 -0.5q0 12 1.5 23t5.5 20q41 5 48.5 18.5 t-12.5 59.5l-139 325q-13 31 -23 55t-24 61h5q-12 -38 -21.5 -64.5t-18.5 -50.5l-114 -297q-22 -59 -13.5 -81.5t49.5 -25.5q4 -9 5.5 -20t1.5 -23q-11 1 -27 1.5t-33.5 1t-34.5 0.5q-25 0 -47 -1t-36 -2zM176 216l16 49h257l9 -45q-67 0 -143.5 -1t-138.5 -3zM306 737 q17 35 31.5 69t24.5 65q12 3 24 5t24 2q26 0 47 -8q-27 -32 -53.5 -65t-57.5 -73q-13 0 -22 0.5t-18 4.5z" />
<glyph unicode="&#xc2;" horiz-adv-x="704" d="M25 -3q0 10 1.5 21.5t5.5 20.5q18 4 30 14t23.5 32.5t26.5 61.5l207 531q10 2 18.5 3t20.5 1l238 -546q17 -37 28 -57t22.5 -28t26.5 -11q4 -13 5 -22t1 -21q-10 1 -31 1.5t-44 1t-39 0.5q-12 0 -28 -0.5t-33 -1t-30.5 -1t-21.5 -0.5q0 12 1.5 23t5.5 20q41 5 48.5 18.5 t-12.5 59.5l-139 325q-13 31 -23 55t-24 61h5q-12 -38 -21.5 -64.5t-18.5 -50.5l-114 -297q-22 -59 -13.5 -81.5t49.5 -25.5q4 -9 5.5 -20t1.5 -23q-11 1 -27 1.5t-33.5 1t-34.5 0.5q-25 0 -47 -1t-36 -2zM176 216l16 49h257l9 -45q-67 0 -143.5 -1t-138.5 -3zM186 762 q34 22 72 52t68 60q8 2 18 3t17 1q24 -28 57 -60t73 -64q-5 -8 -14 -14t-20 -9q-28 17 -60.5 36.5t-61.5 32.5q-14 -6 -40 -20l-52 -28t-41 -24q-8 5 -11.5 16t-4.5 18z" />
<glyph unicode="&#xc3;" horiz-adv-x="704" d="M25 -3q0 10 1.5 21.5t5.5 20.5q18 4 30 14t23.5 32.5t26.5 61.5l207 531q10 2 18.5 3t20.5 1l238 -546q17 -37 28 -57t22.5 -28t26.5 -11q4 -13 5 -22t1 -21q-10 1 -31 1.5t-44 1t-39 0.5q-12 0 -28 -0.5t-33 -1t-30.5 -1t-21.5 -0.5q0 12 1.5 23t5.5 20q41 5 48.5 18.5 t-12.5 59.5l-139 325q-13 31 -23 55t-24 61h5q-12 -38 -21.5 -64.5t-18.5 -50.5l-114 -297q-22 -59 -13.5 -81.5t49.5 -25.5q4 -9 5.5 -20t1.5 -23q-11 1 -27 1.5t-33.5 1t-34.5 0.5q-25 0 -47 -1t-36 -2zM176 216l16 49h257l9 -45q-67 0 -143.5 -1t-138.5 -3zM177 782 q29 38 57 51.5t54 13.5t48 -8.5t42 -17t41 -8.5q15 0 29 6.5t27 19.5q5 -1 13.5 -4t12.5 -10q-22 -41 -49 -59t-56 -18q-18 0 -35 5.5t-33 12t-32.5 12t-34.5 5.5q-19 0 -36.5 -8t-34.5 -24q-7 5 -10 13t-3 18z" />
<glyph unicode="&#xc4;" horiz-adv-x="704" d="M25 -3q0 10 1.5 21.5t5.5 20.5q18 4 30 14t23.5 32.5t26.5 61.5l207 531q10 2 18.5 3t20.5 1l238 -546q17 -37 28 -57t22.5 -28t26.5 -11q4 -13 5 -22t1 -21q-10 1 -31 1.5t-44 1t-39 0.5q-12 0 -28 -0.5t-33 -1t-30.5 -1t-21.5 -0.5q0 12 1.5 23t5.5 20q41 5 48.5 18.5 t-12.5 59.5l-139 325q-13 31 -23 55t-24 61h5q-12 -38 -21.5 -64.5t-18.5 -50.5l-114 -297q-22 -59 -13.5 -81.5t49.5 -25.5q4 -9 5.5 -20t1.5 -23q-11 1 -27 1.5t-33.5 1t-34.5 0.5q-25 0 -47 -1t-36 -2zM176 216l16 49h257l9 -45q-67 0 -143.5 -1t-138.5 -3zM185 783 q0 22 13 39.5t42 17.5q30 0 43.5 -16t13.5 -39t-16 -38t-39 -15q-25 0 -41 14.5t-16 36.5zM379 789q0 24 15.5 37.5t40.5 13.5t41 -14t16 -37q0 -21 -12 -39t-42 -18q-29 0 -44 16t-15 41z" />
<glyph unicode="&#xc5;" horiz-adv-x="704" d="M25 -3q0 10 1.5 21.5t5.5 20.5q18 4 30 14t23.5 32.5t26.5 61.5l207 531q10 2 18.5 3t20.5 1l238 -546q17 -37 28 -57t22.5 -28t26.5 -11q4 -13 5 -22t1 -21q-10 1 -31 1.5t-44 1t-39 0.5q-12 0 -28 -0.5t-33 -1t-30.5 -1t-21.5 -0.5q0 12 1.5 23t5.5 20q41 5 48.5 18.5 t-12.5 59.5l-139 325q-13 31 -23 55t-24 61h5q-12 -38 -21.5 -64.5t-18.5 -50.5l-114 -297q-22 -59 -13.5 -81.5t49.5 -25.5q4 -9 5.5 -20t1.5 -23q-11 1 -27 1.5t-33.5 1t-34.5 0.5q-25 0 -47 -1t-36 -2zM176 216l16 49h257l9 -45q-67 0 -143.5 -1t-138.5 -3zM244 797 q0 35 28.5 57t69.5 22q35 0 63.5 -17.5t28.5 -55.5q0 -34 -28.5 -57t-70.5 -23q-36 0 -63.5 20t-27.5 54zM296 801q0 -20 12.5 -33.5t35.5 -13.5q15 0 27 11t12 30q0 17 -11.5 35t-36.5 18q-17 0 -28 -12.5t-11 -34.5z" />
<glyph unicode="&#xc6;" horiz-adv-x="911" d="M25 -3q0 10 1.5 21.5t5.5 20.5q16 2 30.5 10.5t32.5 32t45 70.5l234 404q23 39 13.5 56.5t-57.5 22.5q-4 9 -5 20.5t-1 22.5q26 0 56.5 -0.5t58 -1t44.5 -0.5q-11 -30 -18.5 -48t-16.5 -35.5t-26 -46.5q-28 -48 -60.5 -104.5t-64 -112t-57.5 -101.5t-41 -73 q-23 -44 -27 -68t8 -34.5t36 -14.5q4 -9 5.5 -19t1.5 -22q-23 2 -51.5 2.5t-53.5 0.5q-16 0 -34 -0.5t-33.5 -1t-25.5 -1.5zM263 293l25 48h318q40 0 62 9.5t30.5 27.5t8.5 43q15 4 25.5 5.5t23.5 1.5q0 -10 -0.5 -29.5t-1 -41.5t-0.5 -40t0.5 -40.5t1 -42.5t0.5 -31 q-13 0 -24 0.5t-22 4.5q-2 26 -10 46.5t-31 32t-71 11.5q-90 0 -152.5 -0.5t-105.5 -1.5t-77 -3zM390 -2q0 11 1.5 22.5t5.5 19.5q26 4 39.5 11.5t19 27.5t5.5 59v402q0 24 0.5 41.5t2.5 39t7 55.5h84v-538q0 -42 8.5 -62t24.5 -25.5t37 -5.5v-45h-68t-61 -0.5t-55.5 -1 t-50.5 -0.5zM517 636v40q96 0 174 0.5t124 1.5q3 -34 8.5 -79.5t12.5 -77.5q-5 -4 -12.5 -7t-15.5 -4t-17 -1q-2 31 -16 60t-48.5 48t-99.5 19h-110zM552 0v45h99q63 0 95 14.5t49 42.5t31 69q15 -4 25 -9.5t19 -14.5q-11 -34 -18.5 -74t-12.5 -75q-31 0 -67.5 0.5t-75.5 1 t-76 0.5h-68z" />
<glyph unicode="&#xc7;" horiz-adv-x="653" d="M35 343q0 86 28 150t75.5 107t107 64t123.5 21q63 0 115 -13t107 -39q-7 -35 -9 -74.5t-2 -80.5q-13 -5 -25 -7t-28 -2q-2 71 -21 109t-52 52t-77 14q-63 0 -108 -23t-73.5 -61.5t-42 -87.5t-13.5 -102q0 -89 30.5 -161.5t87.5 -114.5t137 -42q48 0 98 16t92 43 q6 -5 11.5 -14.5t6.5 -16.5q-59 -46 -116.5 -67.5t-133.5 -21.5q-93 0 -164.5 44.5t-112.5 124t-41 183.5zM288 -63l50 79h50l-48 -66q40 -7 63.5 -31t23.5 -60q0 -33 -21 -55.5t-51 -34t-56 -11.5q-4 7 -5.5 16t-1.5 16q30 0 54.5 14.5t24.5 40.5q0 25 -18.5 39.5 t-46.5 14.5q-7 6 -12.5 15.5t-5.5 22.5z" />
<glyph unicode="&#xc8;" horiz-adv-x="601" d="M56 -3q0 14 1 24.5t4 18.5q27 2 42 10t21 28.5t6 59.5v411q0 34 -6 52t-21 26t-42 9q-3 8 -4 19.5t-1 23.5q15 -1 37.5 -1.5t47.5 -1t47.5 -0.5h35.5v-538q0 -37 7 -57t27 -28t57 -8v-45h-64.5t-74 -0.5t-69.5 -1t-51 -1.5zM170 860q17 9 41.5 11.5t48.5 0.5 q13 -31 27.5 -65.5t33.5 -69.5q-9 -4 -18 -4.5t-22 -0.5q-31 40 -57.5 70.5t-53.5 57.5zM203 636l21 40q79 0 135.5 0.5t93 1.5t52.5 1q2 -22 5 -51t7 -57t9 -50q-8 -7 -19.5 -9.5t-25.5 -2.5q-2 31 -16 60t-48.5 48t-99.5 19h-114zM215 319v43h72q62 0 86 16t25 65 q13 4 24 5.5t24 1.5q-1 -25 -1.5 -54t-0.5 -55t0.5 -58t1.5 -58q-13 0 -24 1t-22 4q-4 52 -27.5 70.5t-85.5 18.5h-72zM315 0v45h6q72 0 108.5 14.5t54.5 42.5t32 69q15 -4 25 -9.5t19 -14.5q-11 -34 -18.5 -74t-12.5 -75q-19 1 -51.5 1t-74 0.5t-88.5 0.5z" />
<glyph unicode="&#xc9;" horiz-adv-x="601" d="M56 -3q0 14 1 24.5t4 18.5q27 2 42 10t21 28.5t6 59.5v411q0 34 -6 52t-21 26t-42 9q-3 8 -4 19.5t-1 23.5q15 -1 37.5 -1.5t47.5 -1t47.5 -0.5h35.5v-538q0 -37 7 -57t27 -28t57 -8v-45h-64.5t-74 -0.5t-69.5 -1t-51 -1.5zM203 636l21 40q79 0 135.5 0.5t93 1.5t52.5 1 q2 -22 5 -51t7 -57t9 -50q-8 -7 -19.5 -9.5t-25.5 -2.5q-2 31 -16 60t-48.5 48t-99.5 19h-114zM215 319v43h72q62 0 86 16t25 65q13 4 24 5.5t24 1.5q-1 -25 -1.5 -54t-0.5 -55t0.5 -58t1.5 -58q-13 0 -24 1t-22 4q-4 52 -27.5 70.5t-85.5 18.5h-72zM255 737q17 35 31.5 69 t24.5 65q12 3 24 5t24 2q26 0 47 -8q-27 -32 -53.5 -65t-57.5 -73q-13 0 -22 0.5t-18 4.5zM315 0v45h6q72 0 108.5 14.5t54.5 42.5t32 69q15 -4 25 -9.5t19 -14.5q-11 -34 -18.5 -74t-12.5 -75q-19 1 -51.5 1t-74 0.5t-88.5 0.5z" />
<glyph unicode="&#xca;" horiz-adv-x="601" d="M56 -3q0 14 1 24.5t4 18.5q27 2 42 10t21 28.5t6 59.5v411q0 34 -6 52t-21 26t-42 9q-3 8 -4 19.5t-1 23.5q15 -1 37.5 -1.5t47.5 -1t47.5 -0.5h35.5v-538q0 -37 7 -57t27 -28t57 -8v-45h-64.5t-74 -0.5t-69.5 -1t-51 -1.5zM135 762q34 22 72 52t68 60q8 2 18 3t17 1 q24 -28 57 -60t73 -64q-5 -8 -14 -14t-20 -9q-28 17 -60.5 36.5t-61.5 32.5q-14 -6 -40 -20l-52 -28t-41 -24q-8 5 -11.5 16t-4.5 18zM203 636l21 40q79 0 135.5 0.5t93 1.5t52.5 1q2 -22 5 -51t7 -57t9 -50q-8 -7 -19.5 -9.5t-25.5 -2.5q-2 31 -16 60t-48.5 48t-99.5 19 h-114zM215 319v43h72q62 0 86 16t25 65q13 4 24 5.5t24 1.5q-1 -25 -1.5 -54t-0.5 -55t0.5 -58t1.5 -58q-13 0 -24 1t-22 4q-4 52 -27.5 70.5t-85.5 18.5h-72zM315 0v45h6q72 0 108.5 14.5t54.5 42.5t32 69q15 -4 25 -9.5t19 -14.5q-11 -34 -18.5 -74t-12.5 -75 q-19 1 -51.5 1t-74 0.5t-88.5 0.5z" />
<glyph unicode="&#xcb;" horiz-adv-x="601" d="M56 -3q0 14 1 24.5t4 18.5q27 2 42 10t21 28.5t6 59.5v411q0 34 -6 52t-21 26t-42 9q-3 8 -4 19.5t-1 23.5q15 -1 37.5 -1.5t47.5 -1t47.5 -0.5h35.5v-538q0 -37 7 -57t27 -28t57 -8v-45h-64.5t-74 -0.5t-69.5 -1t-51 -1.5zM134 783q0 22 13 39.5t42 17.5q30 0 43.5 -16 t13.5 -39t-16 -38t-39 -15q-25 0 -41 14.5t-16 36.5zM203 636l21 40q79 0 135.5 0.5t93 1.5t52.5 1q2 -22 5 -51t7 -57t9 -50q-8 -7 -19.5 -9.5t-25.5 -2.5q-2 31 -16 60t-48.5 48t-99.5 19h-114zM215 319v43h72q62 0 86 16t25 65q13 4 24 5.5t24 1.5q-1 -25 -1.5 -54 t-0.5 -55t0.5 -58t1.5 -58q-13 0 -24 1t-22 4q-4 52 -27.5 70.5t-85.5 18.5h-72zM315 0v45h6q72 0 108.5 14.5t54.5 42.5t32 69q15 -4 25 -9.5t19 -14.5q-11 -34 -18.5 -74t-12.5 -75q-19 1 -51.5 1t-74 0.5t-88.5 0.5zM328 789q0 24 15.5 37.5t40.5 13.5t41 -14t16 -37 q0 -21 -12 -39t-42 -18q-29 0 -44 16t-15 41z" />
<glyph unicode="&#xcc;" horiz-adv-x="354" d="M56 -3q0 14 1 24.5t4 18.5q27 2 42 9.5t21 26t6 51.5v422q0 34 -6 52t-21 26t-42 9q-3 8 -4 19t-1 24q19 -1 38.5 -1.5t40.5 -1t42 -0.5q22 0 42 0.5t39.5 1t39.5 1.5q0 -13 -1 -24t-4 -19q-26 -1 -41.5 -9t-21.5 -26t-6 -52v-422q0 -33 6 -51.5t21.5 -26t41.5 -9.5 q3 -8 4 -18.5t1 -24.5q-30 2 -61 2.5t-60 0.5t-62 -0.5t-59 -2.5zM59 860q17 9 41.5 11.5t48.5 0.5q13 -31 27.5 -65.5t33.5 -69.5q-9 -4 -18 -4.5t-22 -0.5q-31 40 -57.5 70.5t-53.5 57.5z" />
<glyph unicode="&#xcd;" horiz-adv-x="354" d="M56 -3q0 14 1 24.5t4 18.5q27 2 42 9.5t21 26t6 51.5v422q0 34 -6 52t-21 26t-42 9q-3 8 -4 19t-1 24q19 -1 38.5 -1.5t40.5 -1t42 -0.5q22 0 42 0.5t39.5 1t39.5 1.5q0 -13 -1 -24t-4 -19q-26 -1 -41.5 -9t-21.5 -26t-6 -52v-422q0 -33 6 -51.5t21.5 -26t41.5 -9.5 q3 -8 4 -18.5t1 -24.5q-30 2 -61 2.5t-60 0.5t-62 -0.5t-59 -2.5zM144 737q17 35 31.5 69t24.5 65q12 3 24 5t24 2q26 0 47 -8q-27 -32 -53.5 -65t-57.5 -73q-13 0 -22 0.5t-18 4.5z" />
<glyph unicode="&#xce;" horiz-adv-x="354" d="M46 744q30 27 60 59.5t57 64.5q13 2 20.5 3.5t13.5 1.5q24 -33 52 -68t59 -73q-5 -7 -15.5 -12t-20.5 -7q-24 22 -51.5 43.5t-51.5 37.5q-28 -20 -52.5 -41.5t-46.5 -42.5q-10 5 -16 14t-8 20zM56 -3q0 14 1 24.5t4 18.5q27 2 42 9.5t21 26t6 51.5v422q0 34 -6 52t-21 26 t-42 9q-3 8 -4 19t-1 24q19 -1 38.5 -1.5t40.5 -1t42 -0.5q22 0 42 0.5t39.5 1t39.5 1.5q0 -13 -1 -24t-4 -19q-26 -1 -41.5 -9t-21.5 -26t-6 -52v-422q0 -33 6 -51.5t21.5 -26t41.5 -9.5q3 -8 4 -18.5t1 -24.5q-30 2 -61 2.5t-60 0.5t-62 -0.5t-59 -2.5z" />
<glyph unicode="&#xcf;" horiz-adv-x="354" d="M43 785q0 21 13 37.5t42 16.5q30 0 43.5 -15t13.5 -37t-16 -36t-39 -14q-25 0 -41 14t-16 34zM56 -3q0 14 1 24.5t4 18.5q27 2 42 9.5t21 26t6 51.5v422q0 34 -6 52t-21 26t-42 9q-3 8 -4 19t-1 24q19 -1 38.5 -1.5t40.5 -1t42 -0.5q22 0 42 0.5t39.5 1t39.5 1.5 q0 -13 -1 -24t-4 -19q-26 -1 -41.5 -9t-21.5 -26t-6 -52v-422q0 -33 6 -51.5t21.5 -26t41.5 -9.5q3 -8 4 -18.5t1 -24.5q-30 2 -61 2.5t-60 0.5t-62 -0.5t-59 -2.5zM197 791q0 23 15.5 35.5t40.5 12.5t41 -13.5t16 -34.5q0 -20 -12 -36.5t-42 -16.5q-29 0 -44 15t-15 38z " />
<glyph unicode="&#xd0;" horiz-adv-x="730" d="M49 312q0 11 3 27.5t7 23.5h129h36h137q0 -15 -2 -27t-8 -23q-24 1 -44 1h-39.5h-45.5h-35h-42.5t-41.5 -0.5t-54 -1.5zM56 -3q0 14 1 24.5t4 18.5q27 2 42 10t21.5 28.5t6.5 59.5v411q0 34 -6 52t-21 26t-42 9q-3 8 -4 19.5t-1 23.5q16 -1 40.5 -1.5t51 -1t48.5 -0.5 q29 0 59 1t59 1q53 0 107 -7.5t103 -27t87.5 -56t60.5 -93t22 -139.5q0 -81 -20 -139t-53.5 -97t-74.5 -63t-83.5 -36t-81.5 -16t-67 -4h-64.5t-74 -0.5t-69.5 -1t-51 -1.5zM217 628l8 26v-516q0 -37 7 -57t26.5 -28t56.5 -8q60 0 110.5 14.5t88 48t58 90.5t20.5 142 q0 81 -24.5 138.5t-66 93t-94 52t-108.5 16.5q-22 0 -48 -3.5t-34 -8.5z" />
<glyph unicode="&#xd1;" horiz-adv-x="742" d="M56 -3q0 13 1 23.5t4 19.5q27 0 42 13t21 45.5t6 88.5v423h51v-423q0 -56 6 -88.5t21 -45.5t42 -13q3 -9 4 -19t1 -24q-15 1 -32.5 1.5t-34.5 1t-32 0.5q-14 0 -33 -0.5t-36.5 -1t-30.5 -1.5zM56 679q10 -1 22.5 -1.5t26 -1t25.5 -0.5q19 0 36.5 1t30.5 2l399 -529 l-2 -156l-468 611q-14 18 -27 23.5t-38 7.5q-3 11 -4 23t-1 20zM214 782q29 38 57 51.5t54 13.5t48 -8.5t42 -17t41 -8.5q15 0 29 6.5t27 19.5q5 -1 13.5 -4t12.5 -10q-22 -41 -49 -59t-56 -18q-18 0 -35 5.5t-33 12t-32.5 12t-34.5 5.5q-19 0 -36.5 -8t-34.5 -24 q-7 5 -10 13t-3 18zM512 679q15 -1 31 -1.5t32.5 -1t30.5 -0.5q21 0 48 1t47 2q0 -10 -1 -21t-4 -22q-22 0 -35 -13t-18.5 -43.5t-5.5 -85.5v-494q-8 -3 -20 -4.5t-23 -1.5l-8 100v400q0 55 -6 85.5t-21 43.5t-42 13q-3 17 -4 25.5t-1 17.5z" />
<glyph unicode="&#xd2;" horiz-adv-x="731" d="M35 340q0 77 25.5 140t70.5 109t105 71t129 25q96 0 170.5 -43.5t117.5 -121t43 -180.5q0 -74 -24 -137.5t-68.5 -111t-105 -74t-133.5 -26.5q-99 0 -173 46t-115.5 125t-41.5 178zM138 367q0 -63 16 -122t47.5 -105t77.5 -73t106 -27q65 0 111.5 36.5t71.5 99t25 138.5 q0 90 -32.5 163.5t-88.5 116.5t-128 43q-59 0 -105.5 -33.5t-73.5 -94.5t-27 -142zM248 860q17 9 41.5 11.5t48.5 0.5q13 -31 27.5 -65.5t33.5 -69.5q-9 -4 -18 -4.5t-22 -0.5q-31 40 -57.5 70.5t-53.5 57.5z" />
<glyph unicode="&#xd3;" horiz-adv-x="731" d="M35 340q0 77 25.5 140t70.5 109t105 71t129 25q96 0 170.5 -43.5t117.5 -121t43 -180.5q0 -74 -24 -137.5t-68.5 -111t-105 -74t-133.5 -26.5q-99 0 -173 46t-115.5 125t-41.5 178zM138 367q0 -63 16 -122t47.5 -105t77.5 -73t106 -27q65 0 111.5 36.5t71.5 99t25 138.5 q0 90 -32.5 163.5t-88.5 116.5t-128 43q-59 0 -105.5 -33.5t-73.5 -94.5t-27 -142zM333 737q17 35 31.5 69t24.5 65q12 3 24 5t24 2q26 0 47 -8q-27 -32 -53.5 -65t-57.5 -73q-13 0 -22 0.5t-18 4.5z" />
<glyph unicode="&#xd4;" horiz-adv-x="731" d="M35 340q0 77 25.5 140t70.5 109t105 71t129 25q96 0 170.5 -43.5t117.5 -121t43 -180.5q0 -74 -24 -137.5t-68.5 -111t-105 -74t-133.5 -26.5q-99 0 -173 46t-115.5 125t-41.5 178zM138 367q0 -63 16 -122t47.5 -105t77.5 -73t106 -27q65 0 111.5 36.5t71.5 99t25 138.5 q0 90 -32.5 163.5t-88.5 116.5t-128 43q-59 0 -105.5 -33.5t-73.5 -94.5t-27 -142zM213 762q34 22 72 52t68 60q8 2 18 3t17 1q24 -28 57 -60t73 -64q-5 -8 -14 -14t-20 -9q-28 17 -60.5 36.5t-61.5 32.5q-14 -6 -40 -20l-52 -28t-41 -24q-8 5 -11.5 16t-4.5 18z" />
<glyph unicode="&#xd5;" horiz-adv-x="731" d="M35 340q0 77 25.5 140t70.5 109t105 71t129 25q96 0 170.5 -43.5t117.5 -121t43 -180.5q0 -74 -24 -137.5t-68.5 -111t-105 -74t-133.5 -26.5q-99 0 -173 46t-115.5 125t-41.5 178zM138 367q0 -63 16 -122t47.5 -105t77.5 -73t106 -27q65 0 111.5 36.5t71.5 99t25 138.5 q0 90 -32.5 163.5t-88.5 116.5t-128 43q-59 0 -105.5 -33.5t-73.5 -94.5t-27 -142zM204 782q29 38 57 51.5t54 13.5t48 -8.5t42 -17t41 -8.5q15 0 29 6.5t27 19.5q5 -1 13.5 -4t12.5 -10q-22 -41 -49 -59t-56 -18q-18 0 -35 5.5t-33 12t-32.5 12t-34.5 5.5q-19 0 -36.5 -8 t-34.5 -24q-7 5 -10 13t-3 18z" />
<glyph unicode="&#xd6;" horiz-adv-x="731" d="M35 340q0 77 25.5 140t70.5 109t105 71t129 25q96 0 170.5 -43.5t117.5 -121t43 -180.5q0 -74 -24 -137.5t-68.5 -111t-105 -74t-133.5 -26.5q-99 0 -173 46t-115.5 125t-41.5 178zM138 367q0 -63 16 -122t47.5 -105t77.5 -73t106 -27q65 0 111.5 36.5t71.5 99t25 138.5 q0 90 -32.5 163.5t-88.5 116.5t-128 43q-59 0 -105.5 -33.5t-73.5 -94.5t-27 -142zM212 783q0 22 13 39.5t42 17.5q30 0 43.5 -16t13.5 -39t-16 -38t-39 -15q-25 0 -41 14.5t-16 36.5zM406 789q0 24 15.5 37.5t40.5 13.5t41 -14t16 -37q0 -21 -12 -39t-42 -18q-29 0 -44 16 t-15 41z" />
<glyph unicode="&#xd7;" d="M42 41l415 457q15 -4 27 -9.5t20 -16.5q-38 -40 -90.5 -96t-109.5 -119.5t-111.5 -124.5t-96.5 -110q-16 0 -31 4t-23 15zM43 465q8 11 21 17.5t29 6.5l415 -443q-8 -11 -22.5 -17.5t-30.5 -6.5q-49 55 -100 111t-103 111.5t-104.5 111t-104.5 109.5z" />
<glyph unicode="&#xd8;" horiz-adv-x="731" d="M35 340q0 77 25.5 140t70.5 109t105 71t129 25q96 0 170.5 -43.5t117.5 -121t43 -180.5q0 -74 -24 -137.5t-68.5 -111t-105 -74t-133.5 -26.5q-99 0 -173 46t-115.5 125t-41.5 178zM54 -7l79 99l37 -29l-72 -92q-14 0 -26.5 6.5t-17.5 15.5zM138 367q0 -63 16 -122 t47.5 -105t77.5 -73t106 -27q65 0 111.5 36.5t71.5 99t25 138.5q0 90 -32.5 163.5t-88.5 116.5t-128 43q-59 0 -105.5 -33.5t-73.5 -94.5t-27 -142zM171 135l349 458l28 -43l-349 -456zM538 612l66 89q15 0 28 -3t23 -13l-80 -106z" />
<glyph unicode="&#xd9;" horiz-adv-x="675" d="M42 679q20 -1 52.5 -2t63.5 -1h31t31 0.5t29 1t25 1.5q0 -10 -1 -21t-4 -22q-29 -2 -44 -8.5t-20 -24t-5 -54.5v-304q0 -56 15 -102t52 -72.5t103 -26.5q25 0 55 8.5t51 29.5q16 16 25 37t13.5 55t4.5 87v248q0 48 -5 74.5t-19.5 38.5t-44.5 14q-3 15 -4 24t-1 19 q12 -1 28 -1.5t33.5 -1t32.5 -0.5q23 0 49.5 1t45.5 2q0 -7 -1 -16.5t-4 -26.5q-23 -2 -36 -13.5t-18 -38t-5 -75.5v-240q0 -86 -11 -136t-46 -85q-28 -28 -69.5 -42.5t-92.5 -14.5q-93 0 -146.5 27.5t-76 81.5t-22.5 131v318q0 36 -4.5 53.5t-17 24t-37.5 9.5q-3 11 -4 22 t-1 21zM242 860q17 9 41.5 11.5t48.5 0.5q13 -31 27.5 -65.5t33.5 -69.5q-9 -4 -18 -4.5t-22 -0.5q-31 40 -57.5 70.5t-53.5 57.5z" />
<glyph unicode="&#xda;" horiz-adv-x="675" d="M42 679q20 -1 52.5 -2t63.5 -1h31t31 0.5t29 1t25 1.5q0 -10 -1 -21t-4 -22q-29 -2 -44 -8.5t-20 -24t-5 -54.5v-304q0 -56 15 -102t52 -72.5t103 -26.5q25 0 55 8.5t51 29.5q16 16 25 37t13.5 55t4.5 87v248q0 48 -5 74.5t-19.5 38.5t-44.5 14q-3 15 -4 24t-1 19 q12 -1 28 -1.5t33.5 -1t32.5 -0.5q23 0 49.5 1t45.5 2q0 -7 -1 -16.5t-4 -26.5q-23 -2 -36 -13.5t-18 -38t-5 -75.5v-240q0 -86 -11 -136t-46 -85q-28 -28 -69.5 -42.5t-92.5 -14.5q-93 0 -146.5 27.5t-76 81.5t-22.5 131v318q0 36 -4.5 53.5t-17 24t-37.5 9.5q-3 11 -4 22 t-1 21zM327 737q17 35 31.5 69t24.5 65q12 3 24 5t24 2q26 0 47 -8q-27 -32 -53.5 -65t-57.5 -73q-13 0 -22 0.5t-18 4.5z" />
<glyph unicode="&#xdb;" horiz-adv-x="675" d="M42 679q20 -1 52.5 -2t63.5 -1h31t31 0.5t29 1t25 1.5q0 -10 -1 -21t-4 -22q-29 -2 -44 -8.5t-20 -24t-5 -54.5v-304q0 -56 15 -102t52 -72.5t103 -26.5q25 0 55 8.5t51 29.5q16 16 25 37t13.5 55t4.5 87v248q0 48 -5 74.5t-19.5 38.5t-44.5 14q-3 15 -4 24t-1 19 q12 -1 28 -1.5t33.5 -1t32.5 -0.5q23 0 49.5 1t45.5 2q0 -7 -1 -16.5t-4 -26.5q-23 -2 -36 -13.5t-18 -38t-5 -75.5v-240q0 -86 -11 -136t-46 -85q-28 -28 -69.5 -42.5t-92.5 -14.5q-93 0 -146.5 27.5t-76 81.5t-22.5 131v318q0 36 -4.5 53.5t-17 24t-37.5 9.5q-3 11 -4 22 t-1 21zM207 762q34 22 72 52t68 60q8 2 18 3t17 1q24 -28 57 -60t73 -64q-5 -8 -14 -14t-20 -9q-28 17 -60.5 36.5t-61.5 32.5q-14 -6 -40 -20l-52 -28t-41 -24q-8 5 -11.5 16t-4.5 18z" />
<glyph unicode="&#xdc;" horiz-adv-x="675" d="M42 679q20 -1 52.5 -2t63.5 -1h31t31 0.5t29 1t25 1.5q0 -10 -1 -21t-4 -22q-29 -2 -44 -8.5t-20 -24t-5 -54.5v-304q0 -56 15 -102t52 -72.5t103 -26.5q25 0 55 8.5t51 29.5q16 16 25 37t13.5 55t4.5 87v248q0 48 -5 74.5t-19.5 38.5t-44.5 14q-3 15 -4 24t-1 19 q12 -1 28 -1.5t33.5 -1t32.5 -0.5q23 0 49.5 1t45.5 2q0 -7 -1 -16.5t-4 -26.5q-23 -2 -36 -13.5t-18 -38t-5 -75.5v-240q0 -86 -11 -136t-46 -85q-28 -28 -69.5 -42.5t-92.5 -14.5q-93 0 -146.5 27.5t-76 81.5t-22.5 131v318q0 36 -4.5 53.5t-17 24t-37.5 9.5q-3 11 -4 22 t-1 21zM206 783q0 22 13 39.5t42 17.5q30 0 43.5 -16t13.5 -39t-16 -38t-39 -15q-25 0 -41 14.5t-16 36.5zM400 789q0 24 15.5 37.5t40.5 13.5t41 -14t16 -37q0 -21 -12 -39t-42 -18q-29 0 -44 16t-15 41z" />
<glyph unicode="&#xdd;" horiz-adv-x="630" d="M25 678q14 0 31 -0.5t35.5 -1t37.5 -0.5h44.5t50 0.5t39.5 1.5q0 -11 -1 -19.5t-4 -19.5q-39 -4 -44.5 -21.5t16.5 -60.5q27 -52 58.5 -117t62.5 -135h-8q32 71 60.5 131t51.5 106q27 53 20 71t-47 24q-3 11 -5 20.5t-2 20.5q18 -1 47 -1.5t51 -0.5q23 0 46 0.5t40 1.5 q0 -10 -1 -19t-3 -20q-27 -7 -51 -32t-50 -76l-143 -287h-78l-174 334q-16 31 -31 44.5t-43 14.5q-4 11 -5 21t-1 20zM185 -2q0 11 1.5 22t4.5 20q36 3 53 10.5t22 30t5 69.5v114h94v-101q0 -53 5 -77.5t21.5 -32.5t50.5 -13q3 -9 4.5 -20t1.5 -23l-66 2t-61 1 q-22 0 -48.5 -0.5t-50 -0.5t-37.5 -1zM309 737q17 35 31.5 69t24.5 65q12 3 24 5t24 2q26 0 47 -8q-27 -32 -53.5 -65t-57.5 -73q-13 0 -22 0.5t-18 4.5z" />
<glyph unicode="&#xde;" horiz-adv-x="587" d="M56 -3q0 14 1 24.5t4 18.5q27 2 42 9.5t21 26t6 51.5v422q0 34 -6 52t-21 26t-42 9q-3 8 -4 19t-1 24q19 -1 38.5 -1.5t40.5 -1t42 -0.5q22 0 42 0.5t39.5 1t39.5 1.5q0 -13 -1 -24t-4 -19q-26 -1 -41.5 -9t-21.5 -26t-6 -52v-402q0 -43 9 -65.5t29 -31t51 -10.5 q3 -8 4 -18.5t1 -24.5q-16 1 -37 1.5t-45 1t-49 0.5q-31 0 -67 -0.5t-64 -2.5zM173 538q18 0 46 0.5t60.5 1t60.5 0.5q74 0 120.5 -25t69 -67.5t22.5 -93.5q0 -47 -25.5 -94t-75.5 -78t-126 -31q-21 0 -38.5 3t-31.5 7q-2 8 -1.5 17t2.5 16q13 -3 26 -4t29 -1q37 0 70.5 12 t54.5 43t21 89q0 74 -41 121.5t-130 47.5q-16 0 -30.5 -1.5t-40.5 -7.5z" />
<glyph unicode="&#xdf;" horiz-adv-x="598" d="M36 404q0 9 3.5 21.5t10.5 22.5h66v40q0 59 20 101.5t52 70.5t69.5 41.5t72.5 13.5q49 0 81 -19t48.5 -49.5t16.5 -66.5q0 -37 -11.5 -61.5t-28.5 -41.5t-34 -31t-28.5 -29t-11.5 -36q0 -26 14 -43.5t36.5 -31t47.5 -27.5t47.5 -32.5t36.5 -45.5t14 -68q0 -28 -12 -53 t-33 -44.5t-47.5 -31t-55.5 -11.5q-46 0 -72.5 9t-55.5 29q2 16 2.5 34t0 37t-1.5 36q7 5 21 8t26 3q6 -64 24 -92.5t62 -28.5q26 0 45.5 23.5t19.5 61.5q0 33 -20 53t-50 35.5t-59.5 33t-49.5 43t-20 67.5q0 34 13.5 56t33.5 38t40 31t33.5 33.5t13.5 46.5q0 29 -15.5 54 t-42.5 40.5t-61 15.5q-30 0 -50.5 -12.5t-30.5 -43t-10 -85.5v-521q-13 1 -31.5 1.5t-44.5 0.5t-49 -0.5t-39 -2.5q0 14 1 24.5t4 18.5q27 2 42 9.5t21 26t6 51.5v265q-12 5 -37 8.5t-43 3.5z" />
<glyph unicode="&#xe0;" horiz-adv-x="498" d="M50 99q0 39 18.5 66.5t48 46t64 29.5t67.5 17t58 10q0 41 -1.5 64t-6 36.5t-13.5 23.5q-12 15 -27.5 22.5t-34.5 7.5q-33 0 -52 -20.5t-27 -47.5t-9 -48q-11 0 -27.5 1.5t-24.5 5.5q2 25 1 56t-6 53q41 21 86.5 33t83.5 12q37 0 63.5 -10.5t42.5 -27.5q26 -25 34 -65.5 t8 -107.5v-110q0 -28 4.5 -44.5t17.5 -24t40 -9.5q0 -10 -1 -22.5t-5 -23.5q-25 -1 -55.5 -9.5t-53.5 -21.5q-11 5 -17.5 18t-6.5 41q0 9 1 21.5t4 22.5h2q-3 -16 -13.5 -34.5t-27.5 -32.5q-17 -15 -43 -24.5t-63 -9.5q-63 0 -96 28.5t-33 77.5zM105 704q20 10 45.5 11 t50.5 -3q13 -43 30 -86.5t41 -88.5q-9 -4 -19.5 -3.5t-20.5 1.5q-34 54 -64.5 94.5t-62.5 74.5zM147 119q0 -37 18 -54t42 -17q22 0 45 14.5t38.5 45.5t15.5 81v38q-25 -3 -53 -8.5t-52 -16.5t-39 -30.5t-15 -52.5z" />
<glyph unicode="&#xe1;" horiz-adv-x="498" d="M50 99q0 39 18.5 66.5t48 46t64 29.5t67.5 17t58 10q0 41 -1.5 64t-6 36.5t-13.5 23.5q-12 15 -27.5 22.5t-34.5 7.5q-33 0 -52 -20.5t-27 -47.5t-9 -48q-11 0 -27.5 1.5t-24.5 5.5q2 25 1 56t-6 53q41 21 86.5 33t83.5 12q37 0 63.5 -10.5t42.5 -27.5q26 -25 34 -65.5 t8 -107.5v-110q0 -28 4.5 -44.5t17.5 -24t40 -9.5q0 -10 -1 -22.5t-5 -23.5q-25 -1 -55.5 -9.5t-53.5 -21.5q-11 5 -17.5 18t-6.5 41q0 9 1 21.5t4 22.5h2q-3 -16 -13.5 -34.5t-27.5 -32.5q-17 -15 -43 -24.5t-63 -9.5q-63 0 -96 28.5t-33 77.5zM147 119q0 -37 18 -54 t42 -17q22 0 45 14.5t38.5 45.5t15.5 81v38q-25 -3 -53 -8.5t-52 -16.5t-39 -30.5t-15 -52.5zM209 537q24 50 39.5 92t25.5 80q22 8 40.5 10.5t33.5 1.5q9 -1 16.5 -3t12.5 -4q-33 -38 -68 -87.5t-64 -95.5q-9 -1 -18.5 0.5t-17.5 5.5z" />
<glyph unicode="&#xe2;" horiz-adv-x="498" d="M50 99q0 39 18.5 66.5t48 46t64 29.5t67.5 17t58 10q0 41 -1.5 64t-6 36.5t-13.5 23.5q-12 15 -27.5 22.5t-34.5 7.5q-33 0 -52 -20.5t-27 -47.5t-9 -48q-11 0 -27.5 1.5t-24.5 5.5q2 25 1 56t-6 53q41 21 86.5 33t83.5 12q37 0 63.5 -10.5t42.5 -27.5q26 -25 34 -65.5 t8 -107.5v-110q0 -28 4.5 -44.5t17.5 -24t40 -9.5q0 -10 -1 -22.5t-5 -23.5q-25 -1 -55.5 -9.5t-53.5 -21.5q-11 5 -17.5 18t-6.5 41q0 9 1 21.5t4 22.5h2q-3 -16 -13.5 -34.5t-27.5 -32.5q-17 -15 -43 -24.5t-63 -9.5q-63 0 -96 28.5t-33 77.5zM81 555q38 29 80.5 69.5 t76.5 80.5q8 2 17 3t15 1q27 -37 64 -80.5t82 -87.5q-4 -6 -12.5 -11t-17.5 -7q-32 23 -70 50.5t-70 44.5q-12 -6 -32.5 -19t-44 -28.5t-44.5 -30t-33 -23.5q-7 7 -9 19t-2 19zM147 119q0 -37 18 -54t42 -17q22 0 45 14.5t38.5 45.5t15.5 81v38q-25 -3 -53 -8.5t-52 -16.5 t-39 -30.5t-15 -52.5z" />
<glyph unicode="&#xe3;" horiz-adv-x="498" d="M50 99q0 39 18.5 66.5t48 46t64 29.5t67.5 17t58 10q0 41 -1.5 64t-6 36.5t-13.5 23.5q-12 15 -27.5 22.5t-34.5 7.5q-33 0 -52 -20.5t-27 -47.5t-9 -48q-11 0 -27.5 1.5t-24.5 5.5q2 25 1 56t-6 53q41 21 86.5 33t83.5 12q37 0 63.5 -10.5t42.5 -27.5q26 -25 34 -65.5 t8 -107.5v-110q0 -28 4.5 -44.5t17.5 -24t40 -9.5q0 -10 -1 -22.5t-5 -23.5q-25 -1 -55.5 -9.5t-53.5 -21.5q-11 5 -17.5 18t-6.5 41q0 9 1 21.5t4 22.5h2q-3 -16 -13.5 -34.5t-27.5 -32.5q-17 -15 -43 -24.5t-63 -9.5q-63 0 -96 28.5t-33 77.5zM73 587q31 41 58.5 55.5 t52.5 14.5q24 0 46 -10t43.5 -20.5t43.5 -10.5q14 0 29 7t30 24q5 0 14 -2.5t14 -8.5q-27 -48 -53 -65.5t-51 -17.5q-16 0 -33 6.5t-34 15t-34.5 15t-36.5 6.5q-18 0 -37 -8.5t-40 -30.5q-12 9 -12 30zM147 119q0 -37 18 -54t42 -17q22 0 45 14.5t38.5 45.5t15.5 81v38 q-25 -3 -53 -8.5t-52 -16.5t-39 -30.5t-15 -52.5z" />
<glyph unicode="&#xe4;" horiz-adv-x="498" d="M50 99q0 39 18.5 66.5t48 46t64 29.5t67.5 17t58 10q0 41 -1.5 64t-6 36.5t-13.5 23.5q-12 15 -27.5 22.5t-34.5 7.5q-33 0 -52 -20.5t-27 -47.5t-9 -48q-11 0 -27.5 1.5t-24.5 5.5q2 25 1 56t-6 53q41 21 86.5 33t83.5 12q37 0 63.5 -10.5t42.5 -27.5q26 -25 34 -65.5 t8 -107.5v-110q0 -28 4.5 -44.5t17.5 -24t40 -9.5q0 -10 -1 -22.5t-5 -23.5q-25 -1 -55.5 -9.5t-53.5 -21.5q-11 5 -17.5 18t-6.5 41q0 9 1 21.5t4 22.5h2q-3 -16 -13.5 -34.5t-27.5 -32.5q-17 -15 -43 -24.5t-63 -9.5q-63 0 -96 28.5t-33 77.5zM85 583q0 22 13 39.5 t42 17.5q30 0 43.5 -16t13.5 -39t-16 -38t-39 -15q-25 0 -41 14.5t-16 36.5zM147 119q0 -37 18 -54t42 -17q22 0 45 14.5t38.5 45.5t15.5 81v38q-25 -3 -53 -8.5t-52 -16.5t-39 -30.5t-15 -52.5zM279 589q0 24 15.5 37.5t40.5 13.5t41 -14t16 -37q0 -21 -12 -39t-42 -18 q-29 0 -44 16t-15 41z" />
<glyph unicode="&#xe5;" horiz-adv-x="498" d="M50 99q0 39 18.5 66.5t48 46t64 29.5t67.5 17t58 10q0 41 -1.5 64t-6 36.5t-13.5 23.5q-12 15 -27.5 22.5t-34.5 7.5q-33 0 -52 -20.5t-27 -47.5t-9 -48q-11 0 -27.5 1.5t-24.5 5.5q2 25 1 56t-6 53q41 21 86.5 33t83.5 12q37 0 63.5 -10.5t42.5 -27.5q26 -25 34 -65.5 t8 -107.5v-110q0 -28 4.5 -44.5t17.5 -24t40 -9.5q0 -10 -1 -22.5t-5 -23.5q-25 -1 -55.5 -9.5t-53.5 -21.5q-11 5 -17.5 18t-6.5 41q0 9 1 21.5t4 22.5h2q-3 -16 -13.5 -34.5t-27.5 -32.5q-17 -15 -43 -24.5t-63 -9.5q-63 0 -96 28.5t-33 77.5zM138 614q0 40 30.5 67 t73.5 27q37 0 67.5 -21t30.5 -66q0 -40 -30.5 -67.5t-74.5 -27.5q-38 0 -67.5 24t-29.5 64zM147 119q0 -37 18 -54t42 -17q22 0 45 14.5t38.5 45.5t15.5 81v38q-25 -3 -53 -8.5t-52 -16.5t-39 -30.5t-15 -52.5zM193 618q0 -23 13.5 -39t38.5 -16q16 0 28.5 13t12.5 35 q0 21 -12.5 42t-38.5 21q-19 0 -30.5 -15t-11.5 -41z" />
<glyph unicode="&#xe6;" horiz-adv-x="701" d="M50 100q0 48 26 79t67 49t85 27.5t80 13.5l2 -45q-83 -7 -125 -30.5t-42 -76.5q0 -28 10.5 -43.5t26 -21t29.5 -5.5q27 0 47.5 17.5t32.5 55.5t12 98l30 -82q0 -40 -18.5 -72t-54 -51t-86.5 -19q-57 0 -89.5 27t-32.5 79zM74 422q41 20 82.5 32.5t92.5 12.5 q40 0 71.5 -19t51.5 -63h-23q19 31 43 48.5t51 25.5t54 8q39 0 68.5 -16.5t50 -43.5t31 -59.5t12.5 -64.5q-1 -10 -5 -20t-11 -18q-73 -1 -138.5 -4.5t-125.5 -9.5l2 45q41 5 85 8t96 4q0 28 -8 59t-27.5 53t-54.5 22q-40 0 -59 -37t-19 -98v-57q0 -30 6.5 -62t20 -59.5 t36.5 -44.5t56 -17q49 0 78 19.5t45 41.5q7 -4 15 -13t10 -17q-33 -45 -75.5 -64.5t-94.5 -19.5q-49 0 -85 20.5t-59.5 54t-34.5 73t-11 76.5v103q0 51 -25.5 76t-58.5 25q-31 0 -48.5 -18t-25.5 -45t-12 -53q-10 0 -27.5 1.5t-24.5 5.5q2 25 1 56t-6 53z" />
<glyph unicode="&#xe7;" horiz-adv-x="447" d="M40 227q0 60 24 115t70.5 90t113.5 35q46 0 84.5 -11t66.5 -34q-4 -29 -5.5 -57t-1.5 -57q-8 -4 -21.5 -6t-24.5 -2q-6 58 -34 89t-72 31q-49 0 -78 -46t-29 -132q0 -50 16.5 -94.5t48.5 -72t78 -27.5q32 0 60.5 15t50.5 43q8 -4 15 -11.5t10 -16.5q-27 -43 -67 -65 t-97 -22q-51 0 -98.5 26.5t-78.5 79t-31 130.5zM190 -63l50 79h50l-48 -66q40 -7 63.5 -31t23.5 -60q0 -33 -21 -55.5t-51 -34t-56 -11.5q-4 7 -5.5 16t-1.5 16q30 0 54.5 14.5t24.5 40.5q0 25 -18.5 39.5t-46.5 14.5q-7 6 -12.5 15.5t-5.5 22.5z" />
<glyph unicode="&#xe8;" horiz-adv-x="474" d="M40 229q0 64 25 118t71.5 87t110.5 33q65 0 104.5 -28t59 -75t23.5 -104q-4 -20 -15 -34h-51t-77 -0.5t-88 -2t-85 -3.5v51h212q0 66 -24 107t-68 41q-24 0 -47 -14.5t-38 -51t-15 -103.5q0 -49 12.5 -95.5t44 -77t89.5 -30.5q33 0 65 15t57 43q8 -4 15.5 -13.5 t8.5 -17.5q-34 -45 -78.5 -64t-99.5 -19q-71 0 -118 32t-70.5 86.5t-23.5 119.5zM109 704q20 10 45.5 11t50.5 -3q13 -43 30 -86.5t41 -88.5q-9 -4 -19.5 -3.5t-20.5 1.5q-34 54 -64.5 94.5t-62.5 74.5z" />
<glyph unicode="&#xe9;" horiz-adv-x="474" d="M40 229q0 64 25 118t71.5 87t110.5 33q65 0 104.5 -28t59 -75t23.5 -104q-4 -20 -15 -34h-51t-77 -0.5t-88 -2t-85 -3.5v51h212q0 66 -24 107t-68 41q-24 0 -47 -14.5t-38 -51t-15 -103.5q0 -49 12.5 -95.5t44 -77t89.5 -30.5q33 0 65 15t57 43q8 -4 15.5 -13.5 t8.5 -17.5q-34 -45 -78.5 -64t-99.5 -19q-71 0 -118 32t-70.5 86.5t-23.5 119.5zM213 537q24 50 39.5 92t25.5 80q22 8 40.5 10.5t33.5 1.5q9 -1 16.5 -3t12.5 -4q-33 -38 -68 -87.5t-64 -95.5q-9 -1 -18.5 0.5t-17.5 5.5z" />
<glyph unicode="&#xea;" horiz-adv-x="474" d="M40 229q0 64 25 118t71.5 87t110.5 33q65 0 104.5 -28t59 -75t23.5 -104q-4 -20 -15 -34h-51t-77 -0.5t-88 -2t-85 -3.5v51h212q0 66 -24 107t-68 41q-24 0 -47 -14.5t-38 -51t-15 -103.5q0 -49 12.5 -95.5t44 -77t89.5 -30.5q33 0 65 15t57 43q8 -4 15.5 -13.5 t8.5 -17.5q-34 -45 -78.5 -64t-99.5 -19q-71 0 -118 32t-70.5 86.5t-23.5 119.5zM85 555q38 29 80.5 69.5t76.5 80.5q8 2 17 3t15 1q27 -37 64 -80.5t82 -87.5q-4 -6 -12.5 -11t-17.5 -7q-32 23 -70 50.5t-70 44.5q-12 -6 -32.5 -19t-44 -28.5t-44.5 -30t-33 -23.5 q-7 7 -9 19t-2 19z" />
<glyph unicode="&#xeb;" horiz-adv-x="474" d="M40 229q0 64 25 118t71.5 87t110.5 33q65 0 104.5 -28t59 -75t23.5 -104q-4 -20 -15 -34h-51t-77 -0.5t-88 -2t-85 -3.5v51h212q0 66 -24 107t-68 41q-24 0 -47 -14.5t-38 -51t-15 -103.5q0 -49 12.5 -95.5t44 -77t89.5 -30.5q33 0 65 15t57 43q8 -4 15.5 -13.5 t8.5 -17.5q-34 -45 -78.5 -64t-99.5 -19q-71 0 -118 32t-70.5 86.5t-23.5 119.5zM89 583q0 22 13 39.5t42 17.5q30 0 43.5 -16t13.5 -39t-16 -38t-39 -15q-25 0 -41 14.5t-16 36.5zM283 589q0 24 15.5 37.5t40.5 13.5t41 -14t16 -37q0 -21 -12 -39t-42 -18q-29 0 -44 16 t-15 41z" />
<glyph unicode="&#xec;" horiz-adv-x="301" d="M15 704q20 10 45.5 11t50.5 -3q13 -43 30 -86.5t41 -88.5q-9 -4 -19.5 -3.5t-20.5 1.5q-34 54 -64.5 94.5t-62.5 74.5zM36 396q0 11 2 20t7 17q15 0 42.5 5t53.5 13t38 16q9 -3 15.5 -12t6.5 -28v-300q0 -50 13.5 -68.5t45.5 -18.5q3 -10 4 -23t1 -20q-17 1 -36 1.5 t-38.5 1t-38.5 0.5t-39.5 -0.5t-39.5 -1t-36 -1.5q0 10 1 21.5t4 21.5q40 0 54.5 18.5t14.5 68.5v198q0 24 -4.5 39.5t-20.5 23.5t-50 8z" />
<glyph unicode="&#xed;" horiz-adv-x="301" d="M36 396q0 11 2 20t7 17q15 0 42.5 5t53.5 13t38 16q9 -3 15.5 -12t6.5 -28v-300q0 -50 13.5 -68.5t45.5 -18.5q3 -10 4 -23t1 -20q-17 1 -36 1.5t-38.5 1t-38.5 0.5t-39.5 -0.5t-39.5 -1t-36 -1.5q0 10 1 21.5t4 21.5q40 0 54.5 18.5t14.5 68.5v198q0 24 -4.5 39.5 t-20.5 23.5t-50 8zM119 537q24 50 39.5 92t25.5 80q22 8 40.5 10.5t33.5 1.5q9 -1 16.5 -3t12.5 -4q-33 -38 -68 -87.5t-64 -95.5q-9 -1 -18.5 0.5t-17.5 5.5z" />
<glyph unicode="&#xee;" horiz-adv-x="301" d="M18 555q30 33 60 72t57 78q13 2 20.5 3t13.5 1q24 -40 52 -82.5t59 -87.5q-5 -5 -15.5 -9.5t-20.5 -6.5q-24 27 -51.5 55t-51.5 47q-28 -26 -52.5 -53.5t-46.5 -53.5q-21 13 -24 37zM36 396q0 11 2 20t7 17q15 0 42.5 5t53.5 13t38 16q9 -3 15.5 -12t6.5 -28v-300 q0 -50 13.5 -68.5t45.5 -18.5q3 -10 4 -23t1 -20q-17 1 -36 1.5t-38.5 1t-38.5 0.5t-39.5 -0.5t-39.5 -1t-36 -1.5q0 10 1 21.5t4 21.5q40 0 54.5 18.5t14.5 68.5v198q0 24 -4.5 39.5t-20.5 23.5t-50 8z" />
<glyph unicode="&#xef;" horiz-adv-x="301" d="M15 583q0 22 13 39.5t42 17.5q30 0 43.5 -16t13.5 -39t-16 -38t-39 -15q-25 0 -41 14.5t-16 36.5zM36 396q0 11 2 20t7 17q15 0 42.5 5t53.5 13t38 16q9 -3 15.5 -12t6.5 -28v-300q0 -50 13.5 -68.5t45.5 -18.5q3 -10 4 -23t1 -20q-17 1 -36 1.5t-38.5 1t-38.5 0.5 t-39.5 -0.5t-39.5 -1t-36 -1.5q0 10 1 21.5t4 21.5q40 0 54.5 18.5t14.5 68.5v198q0 24 -4.5 39.5t-20.5 23.5t-50 8zM169 589q0 24 15.5 37.5t40.5 13.5t41 -14t16 -37q0 -21 -12 -38.5t-42 -17.5q-29 0 -44 15.5t-15 40.5z" />
<glyph unicode="&#xf0;" horiz-adv-x="524" d="M40 224q0 75 28 129.5t79 84t119 29.5q30 0 53 -6t42 -20l19 -65q-18 19 -52.5 31t-65.5 12q-62 0 -94 -51.5t-32 -134.5q0 -93 36.5 -143.5t93.5 -50.5q62 0 91.5 57.5t29.5 160.5q0 102 -28.5 182.5t-86.5 139t-147 92.5q0 9 2 19t6 18q27 0 52 2.5t50 6.5 q74 -45 130 -112.5t87.5 -152t31.5 -182.5q0 -130 -58 -204t-168 -74q-100 0 -159 61.5t-59 170.5zM176 537l279 139q7 -13 11 -25t3 -25q-42 -20 -74 -35.5t-61 -30t-63 -32t-80 -41.5q-6 11 -11 27t-4 23z" />
<glyph unicode="&#xf1;" horiz-adv-x="597" d="M36 396q0 11 2 20t7 17q31 2 71 12t63 22q9 -3 15.5 -12.5t6.5 -31.5l-90 -209v111q0 24 -5 39t-21 23t-49 9zM37 -3q0 14 1 24.5t4 18.5q39 0 54 18.5t15 68.5v198l90 98q0 -12 -1 -27t-6 -32q3 5 6 11.5t9 14.5q17 23 54.5 47.5t90.5 24.5q38 0 70.5 -15.5t52.5 -51 t20 -96.5v-172q0 -52 14.5 -69.5t44.5 -17.5q3 -9 4 -19t1 -24q-22 2 -50 2.5t-59 0.5q-20 0 -42 -0.5t-41.5 -1t-35.5 -1.5q0 14 1 24.5t4 18.5q36 0 52.5 18.5t16.5 68.5v152q0 71 -26 96.5t-67 25.5q-26 0 -52 -16.5t-43.5 -53t-17.5 -97.5v-107q0 -50 15 -68.5t54 -18.5 q3 -9 4 -19t1 -24q-14 1 -34 1.5t-42 1t-43 0.5q-20 0 -42 -0.5t-42 -1t-35 -1.5zM134 587q31 41 58.5 55.5t52.5 14.5q24 0 46 -10t43.5 -20.5t43.5 -10.5q14 0 29 7t30 24q5 0 14 -2.5t14 -8.5q-27 -48 -53 -65.5t-51 -17.5q-16 0 -33 6.5t-34 15t-34.5 15t-36.5 6.5 q-18 0 -37 -8.5t-40 -30.5q-12 9 -12 30z" />
<glyph unicode="&#xf2;" horiz-adv-x="532" d="M40 229q0 68 29 122t80 85t117 31q71 0 121.5 -30t77.5 -83.5t27 -124.5q0 -68 -28.5 -122t-79 -85t-118.5 -31t-119 29.5t-79 83t-28 125.5zM129 704q20 10 45.5 11t50.5 -3q13 -43 30 -86.5t41 -88.5q-9 -4 -19.5 -3.5t-20.5 1.5q-34 54 -64.5 94.5t-62.5 74.5z M141 250q0 -67 16.5 -114.5t46.5 -72t70 -24.5q60 0 89 49.5t29 128.5q0 62 -18.5 107.5t-49.5 70t-68 24.5q-58 0 -86.5 -47t-28.5 -122z" />
<glyph unicode="&#xf3;" horiz-adv-x="532" d="M40 229q0 68 29 122t80 85t117 31q71 0 121.5 -30t77.5 -83.5t27 -124.5q0 -68 -28.5 -122t-79 -85t-118.5 -31t-119 29.5t-79 83t-28 125.5zM141 250q0 -67 16.5 -114.5t46.5 -72t70 -24.5q60 0 89 49.5t29 128.5q0 62 -18.5 107.5t-49.5 70t-68 24.5q-58 0 -86.5 -47 t-28.5 -122zM233 537q24 50 39.5 92t25.5 80q22 8 40.5 10.5t33.5 1.5q9 -1 16.5 -3t12.5 -4q-33 -38 -68 -87.5t-64 -95.5q-9 -1 -18.5 0.5t-17.5 5.5z" />
<glyph unicode="&#xf4;" horiz-adv-x="532" d="M40 229q0 68 29 122t80 85t117 31q71 0 121.5 -30t77.5 -83.5t27 -124.5q0 -68 -28.5 -122t-79 -85t-118.5 -31t-119 29.5t-79 83t-28 125.5zM105 555q38 29 80.5 69.5t76.5 80.5q8 2 17 3t15 1q27 -37 64 -80.5t82 -87.5q-4 -6 -12.5 -11t-17.5 -7q-32 23 -70 50.5 t-70 44.5q-12 -6 -32.5 -19t-44 -28.5t-44.5 -30t-33 -23.5q-7 7 -9 19t-2 19zM141 250q0 -67 16.5 -114.5t46.5 -72t70 -24.5q60 0 89 49.5t29 128.5q0 62 -18.5 107.5t-49.5 70t-68 24.5q-58 0 -86.5 -47t-28.5 -122z" />
<glyph unicode="&#xf5;" horiz-adv-x="532" d="M40 229q0 68 29 122t80 85t117 31q71 0 121.5 -30t77.5 -83.5t27 -124.5q0 -68 -28.5 -122t-79 -85t-118.5 -31t-119 29.5t-79 83t-28 125.5zM97 587q31 41 58.5 55.5t52.5 14.5q24 0 46 -10t43.5 -20.5t43.5 -10.5q14 0 29 7t30 24q5 0 14 -2.5t14 -8.5 q-27 -48 -53 -65.5t-51 -17.5q-16 0 -33 6.5t-34 15t-34.5 15t-36.5 6.5q-18 0 -37 -8.5t-40 -30.5q-12 9 -12 30zM141 250q0 -67 16.5 -114.5t46.5 -72t70 -24.5q60 0 89 49.5t29 128.5q0 62 -18.5 107.5t-49.5 70t-68 24.5q-58 0 -86.5 -47t-28.5 -122z" />
<glyph unicode="&#xf6;" horiz-adv-x="532" d="M40 229q0 68 29 122t80 85t117 31q71 0 121.5 -30t77.5 -83.5t27 -124.5q0 -68 -28.5 -122t-79 -85t-118.5 -31t-119 29.5t-79 83t-28 125.5zM109 583q0 22 13 39.5t42 17.5q30 0 43.5 -16t13.5 -39t-16 -38t-39 -15q-25 0 -41 14.5t-16 36.5zM141 250q0 -67 16.5 -114.5 t46.5 -72t70 -24.5q60 0 89 49.5t29 128.5q0 62 -18.5 107.5t-49.5 70t-68 24.5q-58 0 -86.5 -47t-28.5 -122zM303 589q0 24 15.5 37.5t40.5 13.5t41 -14t16 -37q0 -21 -12 -39t-42 -18q-29 0 -44 16t-15 41z" />
<glyph unicode="&#xf7;" d="M49 237q0 11 3 27.5t7 23.5h442q0 -15 -1.5 -27t-8.5 -23q-39 0 -65 0.5t-46.5 0.5h-42.5h-52q-61 0 -116.5 -0.5t-119.5 -1.5zM225 109q0 20 11.5 34.5t37.5 14.5q27 0 39 -13t12 -36q0 -22 -14.5 -35t-34.5 -13q-22 0 -36.5 14t-14.5 34zM225 424q0 22 15.5 32.5 t35.5 10.5t35 -11.5t15 -31.5q0 -23 -10.5 -39t-36.5 -16q-28 0 -41 15t-13 40z" />
<glyph unicode="&#xf8;" horiz-adv-x="532" d="M18 -16l85 96l39 -23l-77 -89q-15 0 -28 4.5t-19 11.5zM40 229q0 68 29 122t80 85t117 31q71 0 121.5 -30t77.5 -83.5t27 -124.5q0 -68 -28.5 -122t-79 -85t-118.5 -31t-119 29.5t-79 83t-28 125.5zM130 105l241 284l29 -34l-241 -280zM141 250q0 -67 16.5 -114.5 t46.5 -72t70 -24.5q60 0 89 49.5t29 128.5q0 62 -18.5 107.5t-49.5 70t-68 24.5q-58 0 -86.5 -47t-28.5 -122zM390 411l70 78q15 0 28.5 -3.5t23.5 -11.5l-78 -87z" />
<glyph unicode="&#xf9;" horiz-adv-x="564" d="M16 396q0 11 1.5 19.5t5.5 17.5q31 2 67.5 12t59.5 22q9 -3 15.5 -12.5t6.5 -31.5v-227q0 -67 18.5 -103t64.5 -36q50 0 83.5 42t33.5 129v102q0 35 -12.5 52.5t-62.5 18.5q0 11 1 19.5t6 17.5q39 2 76.5 10.5t59.5 18.5q9 -3 15.5 -12.5t6.5 -31.5v-290l-78 -37 q-5 -13 -14 -25.5t-20 -23.5q-26 -26 -55 -38.5t-70 -12.5q-67 0 -105 39t-38 139v151q0 35 -10 52.5t-56 18.5zM129 704q20 10 45.5 11t50.5 -3q13 -43 30 -86.5t41 -88.5q-9 -4 -19.5 -3.5t-20.5 1.5q-34 54 -64.5 94.5t-62.5 74.5zM379 49q0 11 1.5 31t8.5 56h73 q0 -23 4 -38.5t17.5 -22.5t40.5 -7q0 -10 -1 -22.5t-5 -23.5q-25 -1 -58 -9.5t-56 -21.5q-10 5 -17.5 14.5t-7.5 43.5z" />
<glyph unicode="&#xfa;" horiz-adv-x="564" d="M16 396q0 11 1.5 19.5t5.5 17.5q31 2 67.5 12t59.5 22q9 -3 15.5 -12.5t6.5 -31.5v-227q0 -67 18.5 -103t64.5 -36q50 0 83.5 42t33.5 129v102q0 35 -12.5 52.5t-62.5 18.5q0 11 1 19.5t6 17.5q39 2 76.5 10.5t59.5 18.5q9 -3 15.5 -12.5t6.5 -31.5v-290l-78 -37 q-5 -13 -14 -25.5t-20 -23.5q-26 -26 -55 -38.5t-70 -12.5q-67 0 -105 39t-38 139v151q0 35 -10 52.5t-56 18.5zM233 537q24 50 39.5 92t25.5 80q22 8 40.5 10.5t33.5 1.5q9 -1 16.5 -3t12.5 -4q-33 -38 -68 -87.5t-64 -95.5q-9 -1 -18.5 0.5t-17.5 5.5zM379 49q0 11 1.5 31 t8.5 56h73q0 -23 4 -38.5t17.5 -22.5t40.5 -7q0 -10 -1 -22.5t-5 -23.5q-25 -1 -58 -9.5t-56 -21.5q-10 5 -17.5 14.5t-7.5 43.5z" />
<glyph unicode="&#xfb;" horiz-adv-x="564" d="M16 396q0 11 1.5 19.5t5.5 17.5q31 2 67.5 12t59.5 22q9 -3 15.5 -12.5t6.5 -31.5v-227q0 -67 18.5 -103t64.5 -36q50 0 83.5 42t33.5 129v102q0 35 -12.5 52.5t-62.5 18.5q0 11 1 19.5t6 17.5q39 2 76.5 10.5t59.5 18.5q9 -3 15.5 -12.5t6.5 -31.5v-290l-78 -37 q-5 -13 -14 -25.5t-20 -23.5q-26 -26 -55 -38.5t-70 -12.5q-67 0 -105 39t-38 139v151q0 35 -10 52.5t-56 18.5zM105 555q38 29 80.5 69.5t76.5 80.5q8 2 17 3t15 1q27 -37 64 -80.5t82 -87.5q-4 -6 -12.5 -11t-17.5 -7q-32 23 -70 50.5t-70 44.5q-12 -6 -32.5 -19 t-44 -28.5t-44.5 -30t-33 -23.5q-7 7 -9 19t-2 19zM379 49q0 11 1.5 31t8.5 56h73q0 -23 4 -38.5t17.5 -22.5t40.5 -7q0 -10 -1 -22.5t-5 -23.5q-25 -1 -58 -9.5t-56 -21.5q-10 5 -17.5 14.5t-7.5 43.5z" />
<glyph unicode="&#xfc;" horiz-adv-x="564" d="M16 396q0 11 1.5 19.5t5.5 17.5q31 2 67.5 12t59.5 22q9 -3 15.5 -12.5t6.5 -31.5v-227q0 -67 18.5 -103t64.5 -36q50 0 83.5 42t33.5 129v102q0 35 -12.5 52.5t-62.5 18.5q0 11 1 19.5t6 17.5q39 2 76.5 10.5t59.5 18.5q9 -3 15.5 -12.5t6.5 -31.5v-290l-78 -37 q-5 -13 -14 -25.5t-20 -23.5q-26 -26 -55 -38.5t-70 -12.5q-67 0 -105 39t-38 139v151q0 35 -10 52.5t-56 18.5zM109 583q0 22 13 39.5t42 17.5q30 0 43.5 -16t13.5 -39t-16 -38t-39 -15q-25 0 -41 14.5t-16 36.5zM303 589q0 24 15.5 37.5t40.5 13.5t41 -14t16 -37 q0 -21 -12 -39t-42 -18q-29 0 -44 16t-15 41zM379 49q0 11 1.5 31t8.5 56h73q0 -23 4 -38.5t17.5 -22.5t40.5 -7q0 -10 -1 -22.5t-5 -23.5q-25 -1 -58 -9.5t-56 -21.5q-10 5 -17.5 14.5t-7.5 43.5z" />
<glyph unicode="&#xfd;" horiz-adv-x="541" d="M15 460q29 -1 58 -1.5t55 -0.5t64 0.5t69 1.5q0 -13 -1.5 -23.5t-5.5 -19.5q-54 -9 -62 -31.5t19 -78.5q14 -29 32 -69.5t35 -81t29 -71.5l-45 -106q-24 53 -50.5 111.5t-50.5 112.5t-42 91q-23 50 -38.5 75t-29 35t-30.5 13q-3 9 -4.5 20t-1.5 23zM40 -188.5 q1 22.5 4 35.5q17 -3 33 -4.5t31 -1.5q29 0 55.5 14t45.5 45q14 21 42 82.5t59 141.5l69 174q26 64 12.5 87.5t-57.5 31.5q-4 11 -5.5 21.5t-1.5 21.5q23 -1 47 -1.5t52 -0.5t53 0.5t47 1.5q0 -10 -0.5 -21t-5.5 -22q-18 -4 -30.5 -14t-23.5 -31t-27 -59l-147 -350 q-28 -68 -50.5 -110t-42 -64t-39 -30t-42.5 -8q-30 0 -47.5 8t-27.5 15q-4 15 -3 37.5zM264 537q24 50 39.5 92t25.5 80q22 8 40.5 10.5t33.5 1.5q9 -1 16.5 -3t12.5 -4q-33 -38 -68 -87.5t-64 -95.5q-9 -1 -18.5 0.5t-17.5 5.5z" />
<glyph unicode="&#xfe;" horiz-adv-x="572" d="M35 646q0 11 2 20t7 17q15 0 42.5 5t53.5 13t38 16q9 -3 15.5 -12t6.5 -28v-261q0 -18 -2 -30.5t-4 -23.5l6 -56v-401q0 -43 9 -65.5t29 -31t51 -10.5q3 -8 4 -18.5t1 -24.5q-15 1 -35.5 1.5t-43.5 1t-47 0.5q-35 0 -73.5 -0.5t-58.5 -2.5q0 14 1 24.5t4 18.5 q27 2 42 9.5t21 26t6 51.5v690q0 24 -4.5 39.5t-20.5 23.5t-50 8zM171 319q13 32 22.5 49t14.5 25q9 15 28.5 32.5t47.5 29.5t61 12q59 0 100.5 -23t64 -70t22.5 -120q0 -74 -31 -134t-87 -94.5t-131 -34.5q-28 0 -49.5 5t-47.5 13v77q20 -21 43.5 -35t58.5 -14 q21 0 45.5 8.5t47.5 29.5t37.5 59t14.5 98q0 53 -14.5 91.5t-40 59.5t-57.5 21q-29 0 -57 -18.5t-46 -60.5t-18 -112z" />
<glyph unicode="&#xff;" horiz-adv-x="541" d="M15 460q29 -1 58 -1.5t55 -0.5t64 0.5t69 1.5q0 -13 -1.5 -23.5t-5.5 -19.5q-54 -9 -62 -31.5t19 -78.5q14 -29 32 -69.5t35 -81t29 -71.5l-45 -106q-24 53 -50.5 111.5t-50.5 112.5t-42 91q-23 50 -38.5 75t-29 35t-30.5 13q-3 9 -4.5 20t-1.5 23zM40 -188.5 q1 22.5 4 35.5q17 -3 33 -4.5t31 -1.5q29 0 55.5 14t45.5 45q14 21 42 82.5t59 141.5l69 174q26 64 12.5 87.5t-57.5 31.5q-4 11 -5.5 21.5t-1.5 21.5q23 -1 47 -1.5t52 -0.5t53 0.5t47 1.5q0 -10 -0.5 -21t-5.5 -22q-18 -4 -30.5 -14t-23.5 -31t-27 -59l-147 -350 q-28 -68 -50.5 -110t-42 -64t-39 -30t-42.5 -8q-30 0 -47.5 8t-27.5 15q-4 15 -3 37.5zM140 583q0 22 13 39.5t42 17.5q30 0 43.5 -16t13.5 -39t-16 -38t-39 -15q-25 0 -41 14.5t-16 36.5zM334 589q0 24 15.5 37.5t40.5 13.5t41 -14t16 -37q0 -21 -12 -39t-42 -18 q-29 0 -44 16t-15 41z" />
<glyph unicode="&#x152;" horiz-adv-x="961" d="M35 333q0 107 39.5 185t112 121t171.5 43q22 0 65.5 -1.5t95 -3t96.5 -1.5q46 0 92 0.5t87 1t71 0.5q2 -20 5 -48t7 -56t9 -50q-8 -7 -19.5 -9.5t-25.5 -2.5q-2 31 -16.5 60t-49.5 47.5t-101 18.5h-162q71 -41 103 -114t35 -162h14q59 0 79.5 21.5t20.5 58.5q14 4 25 5.5 t24 1.5q0 -10 -0.5 -29.5t-1 -41.5t-0.5 -40t0.5 -40.5t1 -42.5t0.5 -31q-13 0 -24 1t-22 4q-2 27 -10 47t-31 31.5t-70 11.5h-7q-4 -85 -35.5 -157.5t-98.5 -116.5h186q62 0 94.5 14.5t49.5 42.5t31 69q15 -4 25 -9.5t19 -14.5q-11 -34 -18.5 -74t-12.5 -75q-19 1 -51.5 1 t-75 0.5t-91.5 0.5q-69 0 -124.5 -2t-102.5 -4.5t-92 -2.5q-97 0 -168.5 42t-110 118.5t-38.5 181.5zM134 352q0 -96 28 -166t80 -108t123 -38q52 0 93 31t65.5 94t24.5 159q0 106 -30 174.5t-76.5 102t-97.5 33.5q-64 0 -111.5 -35t-73 -98t-25.5 -149z" />
<glyph unicode="&#x153;" horiz-adv-x="780" d="M40 229q0 73 26.5 126.5t75 82.5t114.5 29q95 0 147.5 -64t52.5 -174q0 -109 -52.5 -173.5t-147.5 -64.5q-66 0 -114.5 29t-75 82.5t-26.5 126.5zM140 250q0 -97 33.5 -154t90.5 -57q50 0 77.5 48t27.5 130q0 93 -32.5 147.5t-90.5 54.5q-49 0 -77.5 -45.5t-28.5 -123.5z M370 229q0 73 22 126.5t64.5 82.5t101.5 29q63 0 101.5 -28t57.5 -75t23 -104q-4 -20 -15 -34h-51t-77 -0.5t-88 -2t-85 -3.5v51h212q0 66 -23.5 107t-63.5 41q-43 0 -67.5 -45.5t-24.5 -123.5q0 -94 36.5 -148.5t101.5 -54.5q29 0 60.5 15t56.5 43q8 -4 15.5 -13.5 t8.5 -17.5q-34 -45 -78 -64t-95 -19q-91 0 -142 64.5t-51 173.5z" />
<glyph unicode="&#x178;" horiz-adv-x="630" d="M25 678q14 0 31 -0.5t35.5 -1t37.5 -0.5h44.5t50 0.5t39.5 1.5q0 -11 -1 -19.5t-4 -19.5q-39 -4 -44.5 -21.5t16.5 -60.5q27 -52 58.5 -117t62.5 -135h-8q32 71 60.5 131t51.5 106q27 53 20 71t-47 24q-3 11 -5 20.5t-2 20.5q18 -1 47 -1.5t51 -0.5q23 0 46 0.5t40 1.5 q0 -10 -1 -19t-3 -20q-27 -7 -51 -32t-50 -76l-143 -287h-78l-174 334q-16 31 -31 44.5t-43 14.5q-4 11 -5 21t-1 20zM185 -2q0 11 1.5 22t4.5 20q36 3 53 10.5t22 30t5 69.5v114h94v-101q0 -53 5 -77.5t21.5 -32.5t50.5 -13q3 -9 4.5 -20t1.5 -23l-66 2t-61 1 q-22 0 -48.5 -0.5t-50 -0.5t-37.5 -1zM188 783q0 22 13 39.5t42 17.5q30 0 43.5 -16t13.5 -39t-16 -38t-39 -15q-25 0 -41 14.5t-16 36.5zM382 789q0 24 15.5 37.5t40.5 13.5t41 -14t16 -37q0 -21 -12 -39t-42 -18q-29 0 -44 16t-15 41z" />
<glyph unicode="&#x2c6;" horiz-adv-x="300" d="M-18 555q38 29 80.5 69.5t76.5 80.5q8 2 17 3t15 1q27 -37 64 -80.5t82 -87.5q-4 -6 -12.5 -11t-17.5 -7q-32 23 -70 50.5t-70 44.5q-12 -6 -32.5 -19t-44 -28.5t-44.5 -30t-33 -23.5q-7 7 -9 19t-2 19z" />
<glyph unicode="&#x2dc;" horiz-adv-x="300" d="M-16 587q31 41 58.5 55.5t52.5 14.5q24 0 46 -10t43.5 -20.5t43.5 -10.5q14 0 29 7t30 24q5 0 14 -2.5t14 -8.5q-27 -48 -53 -65.5t-51 -17.5q-16 0 -33 6.5t-34 15t-34.5 15t-36.5 6.5q-18 0 -37 -8.5t-40 -30.5q-12 9 -12 30z" />
<glyph unicode="&#x2000;" horiz-adv-x="439" />
<glyph unicode="&#x2001;" horiz-adv-x="878" />
<glyph unicode="&#x2002;" horiz-adv-x="439" />
<glyph unicode="&#x2003;" horiz-adv-x="878" />
<glyph unicode="&#x2004;" horiz-adv-x="292" />
<glyph unicode="&#x2005;" horiz-adv-x="219" />
<glyph unicode="&#x2006;" horiz-adv-x="146" />
<glyph unicode="&#x2007;" horiz-adv-x="146" />
<glyph unicode="&#x2008;" horiz-adv-x="109" />
<glyph unicode="&#x2009;" horiz-adv-x="175" />
<glyph unicode="&#x200a;" horiz-adv-x="48" />
<glyph unicode="&#x2010;" horiz-adv-x="419" d="M60 225q0 17 4.5 36.5t11.5 32.5h283q0 -16 -3 -33.5t-10 -31.5q-27 0 -65 -0.5t-79 -1t-78 -1t-64 -1.5z" />
<glyph unicode="&#x2011;" horiz-adv-x="419" d="M60 225q0 17 4.5 36.5t11.5 32.5h283q0 -16 -3 -33.5t-10 -31.5q-27 0 -65 -0.5t-79 -1t-78 -1t-64 -1.5z" />
<glyph unicode="&#x2012;" horiz-adv-x="419" d="M60 225q0 17 4.5 36.5t11.5 32.5h283q0 -16 -3 -33.5t-10 -31.5q-27 0 -65 -0.5t-79 -1t-78 -1t-64 -1.5z" />
<glyph unicode="&#x2013;" horiz-adv-x="566" d="M60 232q0 14 3 30t8 26h435q0 -15 -2 -28.5t-9 -24.5h-100t-95 -0.5t-106 -1t-134 -1.5z" />
<glyph unicode="&#x2014;" horiz-adv-x="1024" d="M60 231q0 11 3.5 29.5t7.5 25.5h893q0 -15 -2 -28t-9 -24q-298 0 -518 -0.5t-375 -2.5z" />
<glyph unicode="&#x2018;" horiz-adv-x="242" d="M60 539q0 55 19 96t55 82q11 0 22.5 -3.5t17.5 -9.5q-25 -35 -32 -53.5t-7 -43.5q0 -21 11.5 -34t35.5 -16q0 -10 -1.5 -28.5t-6.5 -31.5q-22 -4 -42.5 -11.5t-37.5 -18.5q-17 7 -25.5 25.5t-8.5 46.5z" />
<glyph unicode="&#x2019;" horiz-adv-x="242" d="M60 625q0 10 1.5 28.5t6.5 31.5q22 4 42.5 11.5t37.5 18.5q17 -7 25.5 -25.5t8.5 -46.5q0 -55 -19 -96t-55 -82q-11 0 -22.5 3.5t-17.5 9.5q25 35 32 53.5t7 43.5q0 21 -11.5 34t-35.5 16z" />
<glyph unicode="&#x201a;" horiz-adv-x="242" d="M60 8q0 10 1.5 28.5t6.5 31.5q22 4 42.5 11.5t37.5 18.5q17 -7 25.5 -25.5t8.5 -46.5q0 -55 -19 -96t-55 -82q-11 0 -22.5 3.5t-17.5 9.5q25 35 32 53.5t7 43.5q0 21 -11.5 34t-35.5 16z" />
<glyph unicode="&#x201c;" horiz-adv-x="386" d="M60 543q0 44 20 89.5t53 82.5q8 1 20 -2t19 -8q-16 -22 -27.5 -50t-11.5 -48q0 -19 9.5 -33t34.5 -16q1 -13 -1 -32t-7 -30q-42 -7 -75 -29q-15 10 -24.5 28t-9.5 48zM208 546q0 44 20 87t52 80q9 1 20.5 -2t18.5 -8q-15 -22 -27 -49t-12 -47q0 -19 10.5 -33t35.5 -16 q1 -13 -1 -30.5t-7 -28.5q-21 -4 -41 -11t-35 -18q-16 10 -25 28t-9 48z" />
<glyph unicode="&#x201d;" horiz-adv-x="386" d="M60 626q-1 13 1 30.5t7 28.5q21 4 41 11t35 18q16 -10 25 -28t9 -48q0 -44 -20 -87t-52 -80q-9 -1 -20.5 2t-18.5 8q15 22 27 49t12 47q0 19 -10.5 33t-35.5 16zM209 626q-1 13 1 32t7 30q42 7 75 29q15 -10 24.5 -28t9.5 -48q0 -44 -20 -89.5t-53 -82.5q-8 -1 -20 2 t-19 8q16 22 27.5 50t11.5 48q0 19 -9.5 33t-34.5 16z" />
<glyph unicode="&#x201e;" horiz-adv-x="386" d="M60 8q-1 13 1 30.5t7 28.5q21 4 41 11t35 18q16 -10 25 -28t9 -48q0 -44 -20 -87t-52 -80q-9 -1 -20.5 2t-18.5 8q15 22 27 49t12 47q0 19 -10.5 33t-35.5 16zM209 8q-1 13 1 32t7 30q42 7 75 29q15 -10 24.5 -28t9.5 -48q0 -44 -20 -89.5t-53 -82.5q-8 -1 -20 2t-19 8 q16 22 27.5 50t11.5 48q0 19 -9.5 33t-34.5 16z" />
<glyph unicode="&#x2022;" horiz-adv-x="338" d="M60 260q0 44 31 72.5t80 28.5q35 0 59 -14.5t36 -37.5t12 -50q0 -46 -28.5 -77t-78.5 -31q-38 0 -62.5 15.5t-36.5 40.5t-12 53z" />
<glyph unicode="&#x2026;" horiz-adv-x="860" d="M48 54q0 28 20.5 48t52.5 20q31 0 48.5 -21t17.5 -41q0 -36 -21.5 -53t-49.5 -17q-32 0 -50 18t-18 46zM368 54q0 28 20.5 48t52.5 20q31 0 48.5 -21t17.5 -41q0 -36 -21.5 -53t-49.5 -17q-32 0 -50 18t-18 46zM672 54q0 28 20.5 48t52.5 20q31 0 48.5 -21t17.5 -41 q0 -36 -21.5 -53t-49.5 -17q-32 0 -50 18t-18 46z" />
<glyph unicode="&#x202f;" horiz-adv-x="175" />
<glyph unicode="&#x2039;" horiz-adv-x="356" d="M60 240q0 9 1.5 17t4.5 17q41 34 78 71t70 73q10 -1 18.5 -4.5t15.5 -10.5q-15 -16 -34.5 -42.5t-37 -52t-25.5 -41.5q17 -32 44 -75t49 -75q0 -10 -5 -19.5t-11 -14.5q-44 45 -87.5 86.5t-80.5 70.5z" />
<glyph unicode="&#x203a;" horiz-adv-x="361" d="M108 404q8 7 18 10.5t19 3.5q24 -23 48.5 -45t50 -44t51.5 -44q4 -7 5 -15t1 -17q-40 -40 -79 -82t-77 -84q-8 5 -14 13t-9 16q25 32 48.5 64.5t45.5 68.5q-13 21 -31.5 48t-38.5 55.5t-38 51.5z" />
<glyph unicode="&#x205f;" horiz-adv-x="219" />
<glyph unicode="&#x20ac;" horiz-adv-x="773" d="M55 249q0 14 3 30t8 26h465q0 -15 -2 -28.5t-9 -24.5h-107t-101.5 -0.5t-113.5 -1t-143 -1.5zM65 371q0 14 3 30t8 26h475q0 -15 -2 -28.5t-9 -24.5h-109t-104 -0.5t-116 -1t-146 -1.5zM155 343q0 86 28 150t75.5 107t107 64t123.5 21q63 0 115 -13t107 -39 q-7 -35 -9 -74.5t-2 -80.5q-13 -5 -25 -7t-28 -2q-2 71 -21 109t-52 52t-77 14q-63 0 -108 -23t-73.5 -61.5t-42 -87.5t-13.5 -102q0 -89 30.5 -161.5t87.5 -114.5t137 -42q48 0 98 16t92 43q6 -5 11.5 -14.5t6.5 -16.5q-59 -46 -116.5 -67.5t-133.5 -21.5 q-93 0 -164.5 44.5t-112.5 124t-41 183.5z" />
<glyph unicode="&#x2122;" horiz-adv-x="938" d="M60 664q5 20 8 48t3 47q19 0 40 -0.5t47.5 -0.5h62.5h60t49 0.5t40 0.5q0 -19 2.5 -45.5t6.5 -49.5q-15 -7 -43 -7q-4 35 -17.5 52.5t-42.5 17.5h-109q-32 0 -45 -18t-20 -52q-11 0 -22.5 1.5t-19.5 5.5zM121 408q0 9 1.5 21.5t3.5 18.5q29 2 41 11.5t12 41.5v241h83 v-241q0 -32 11.5 -41.5t40.5 -11.5q2 -6 3 -18.5t1 -21.5q-15 1 -41 1.5t-52 0.5q-18 0 -38 -0.5t-37.5 -0.5t-28.5 -1zM397 408q0 9 1 21t3 19q20 2 29.5 14.5t13.5 61.5l13 147q2 29 -4.5 38t-28.5 9q-2 9 -3 20t-1 21q7 0 18.5 -0.5t23 -0.5h19.5h19.5t22.5 0.5t16 0.5 l115 -265h-16l100 265q8 0 19.5 -0.5t22.5 -0.5h18h19t22 0.5t18 0.5q0 -9 -1 -21t-3 -20q-21 0 -29 -8t-4 -41l16 -159q3 -28 6.5 -41t11 -16.5t20.5 -4.5q2 -10 3 -20t1 -20q-6 0 -16.5 0.5t-24 1t-25.5 0.5h-21q-11 0 -25 -0.5t-27 -0.5t-20 -1q0 10 1 21.5t3 18.5 q16 2 23 5.5t8.5 14.5t-1.5 36l-18 173h9l-107 -268q-6 -2 -15.5 -3t-17.5 -1l-122 272h12l-16 -154q-5 -49 2 -61t28 -14q2 -7 3.5 -19t1.5 -21q-10 1 -26 1.5t-30 0.5t-33 -0.5t-27 -1.5z" />
<glyph unicode="&#xfb01;" horiz-adv-x="627" d="M36 404q0 9 3.5 21.5t10.5 22.5h66v40q0 65 29.5 116t84 81t129.5 30q47 0 83.5 -8.5t67.5 -22.5q-2 -31 -2.5 -51.5t-0.5 -40.5q-14 -10 -38.5 -14.5t-47.5 -0.5q0 27 -9.5 46.5t-29 29.5t-49.5 10q-69 0 -98 -35.5t-29 -108.5v-71h167q32 1 68 5t64 14q12 -5 17 -14 t5 -29v-297q0 -50 13.5 -67.5t45.5 -19.5q3 -9 4 -20.5t1 -22.5q-13 1 -31 1.5t-39.5 1t-43.5 0.5t-43 -0.5t-39 -1t-32 -1.5q0 13 1 23t4 20q40 2 54.5 19.5t14.5 67.5v194q0 27 -7 45t-29 27t-67 9q-20 0 -46.5 -1.5t-49 -4.5t-32.5 -6v-263q0 -32 6.5 -50.5t22 -26.5 t40.5 -10q3 -9 4 -19t1 -24q-19 2 -51.5 2.5t-62.5 0.5t-67 -0.5t-57 -2.5q0 14 1 24.5t4 18.5q27 2 42 9.5t21 26t6 51.5v265q-12 5 -37 8.5t-43 3.5z" />
<glyph unicode="&#xfb02;" horiz-adv-x="623" d="M36 403q0 13 3.5 24t10.5 21h81v-57q-25 7 -51 9.5t-44 2.5zM42 -3q0 14 1 24.5t4 18.5q27 2 42 9.5t21 26t6 51.5v100h90v-80q0 -43 6 -65.5t21 -31t42 -10.5q3 -8 4 -18.5t1 -24.5q-23 2 -52 2.5t-64 0.5t-68.5 -0.5t-53.5 -2.5zM116 222v266q0 59 20.5 102t54.5 70.5 t76 41t84 13.5q34 0 64 -7.5t46 -17.5l10 -125h-37q0 32 -14 53t-39.5 32t-60.5 11q-57 0 -85.5 -32.5t-28.5 -109.5v-297h-90zM197 389v59h111q0 -10 -2 -22.5t-8 -22.5q-29 0 -54.5 -3.5t-46.5 -10.5zM360 -3q0 10 1 21.5t4 21.5q40 0 54.5 18.5t14.5 68.5v49h90v-49 q0 -50 13.5 -68.5t45.5 -18.5q3 -10 4 -23t1 -20q-17 1 -36 1.5t-38.5 1t-38.5 0.5t-39.5 -0.5t-39.5 -1t-36 -1.5zM420 690q14 1 28 4t28 9t26 14q9 -3 15.5 -12t6.5 -28v-139l-70 10zM434 167v408h90v-408h-90z" />
</font>
</defs>
</svg>
